<svg width="40" height="42" viewBox="0 0 40 42" fill="none" xmlns="http://www.w3.org/2000/svg">
<path d="M24.7186 3.65895C24.5304 3.65895 24.3484 3.68533 24.1756 3.73362C24.0998 3.40519 23.9501 3.08869 23.7232 2.81012C22.9329 1.83982 21.5096 1.69716 20.5442 2.49142C19.8541 3.05917 19.585 3.95189 19.7761 4.76932C19.6811 4.75016 19.5829 4.74003 19.4823 4.74003C18.6616 4.74003 17.9963 5.40867 17.9963 6.2334C17.9963 7.05813 18.6617 7.72677 19.4823 7.72677H24.7186C25.8363 7.72677 26.7424 6.81614 26.7424 5.6929C26.7424 4.5695 25.8363 3.65895 24.7186 3.65895Z" fill="#EBF9FF"/>
<path d="M24.7186 3.65909C24.5304 3.65909 24.3484 3.68548 24.1755 3.73376C24.0998 3.40533 23.9501 3.08884 23.7232 2.81026C23.001 1.92366 21.7505 1.72855 20.8036 2.30745C21.0169 2.43755 21.2124 2.60518 21.3794 2.81026C21.6063 3.08876 21.756 3.40533 21.8318 3.73376C22.0047 3.68548 22.1866 3.65909 22.3748 3.65909C23.4926 3.65909 24.3987 4.56972 24.3987 5.69296C24.3987 6.81621 23.4926 7.72683 22.3748 7.72683H24.7186C25.8363 7.72683 26.7423 6.81621 26.7423 5.69296C26.7423 4.56972 25.8363 3.65909 24.7186 3.65909Z" fill="#D7EFFA"/>
<path d="M36.7465 7.52356C36.4984 7.52356 36.2585 7.55834 36.0306 7.62202C35.9307 7.18908 35.7334 6.77185 35.4344 6.40471C34.3927 5.12577 32.5166 4.93773 31.244 5.98465C30.3344 6.73299 29.9797 7.9097 30.2316 8.98717C30.1064 8.96189 29.977 8.94854 29.8444 8.94854C28.7627 8.94854 27.8857 9.82988 27.8857 10.917C27.8857 12.0041 28.7627 12.8855 29.8444 12.8855H36.7465C38.2198 12.8855 39.4141 11.6852 39.4141 10.2046C39.4141 8.72391 38.2198 7.52356 36.7465 7.52356Z" fill="#EBF9FF"/>
<path d="M36.7464 7.52365C36.4983 7.52365 36.2584 7.55843 36.0305 7.62211C35.9306 7.18917 35.7333 6.77194 35.4344 6.4048C34.5745 5.34916 33.1464 5.03753 31.9582 5.54945C32.3852 5.73271 32.7761 6.01866 33.0906 6.4048C33.3897 6.77194 33.5869 7.18917 33.6868 7.62211C33.9147 7.55843 34.1545 7.52365 34.4026 7.52365C35.8759 7.52365 37.0703 8.72392 37.0703 10.2046C37.0703 11.6852 35.876 12.8856 34.4026 12.8856H36.7464C38.2197 12.8856 39.4141 11.6853 39.4141 10.2046C39.4141 8.724 38.2198 7.52365 36.7464 7.52365Z" fill="#D7EFFA"/>
<path d="M39.4141 39.9521H0.585938C0.262344 39.9521 0 40.2159 0 40.5413C0 40.8667 0.262344 41.1305 0.585938 41.1305H39.4141C39.7377 41.1305 40 40.8667 40 40.5413C40 40.2159 39.7377 39.9521 39.4141 39.9521Z" fill="#ABDF3A"/>
<path d="M25.4334 17.3191H32.8066L32.0424 22.2235C31.914 23.0477 31.2109 23.6548 30.3851 23.6548H28.1294L25.4334 17.3191Z" fill="#ABDF3A"/>
<path d="M30.4629 17.3191L29.6987 22.2235C29.5748 23.0186 28.9156 23.6101 28.1277 23.6508L28.1295 23.6548H30.3852C31.211 23.6548 31.9141 23.0476 32.0425 22.2235L32.8067 17.3191H30.4629Z" fill="#ABDF3A"/>
<path d="M33.872 17.9085H25.5116C25.1879 17.9085 24.9256 17.6448 24.9256 17.3194C24.9256 16.994 25.1879 16.7302 25.5116 16.7302H33.872C34.1957 16.7302 34.458 16.994 34.458 17.3194C34.458 17.6448 34.1956 17.9085 33.872 17.9085Z" fill="#ABDF3A"/>
<path d="M32.2244 26.0149C28.2536 26.0149 25.0347 29.2667 25.0347 33.278C25.0347 37.2893 28.2537 40.5411 32.2244 40.5411C36.1952 40.5411 39.4141 37.2893 39.4141 33.278C39.4141 29.2667 36.1952 26.0149 32.2244 26.0149ZM32.2244 38.1856C29.5524 38.1856 27.3784 35.984 27.3784 33.278C27.3784 30.5719 29.5524 28.3704 32.2244 28.3704C34.8964 28.3704 37.0703 30.5719 37.0703 33.278C37.0703 35.984 34.8964 38.1856 32.2244 38.1856Z" fill="#2E3A57"/>
<path d="M32.2244 26.0149C31.8252 26.0149 31.4339 26.0483 31.0525 26.1115C34.4658 26.6768 37.0703 29.6699 37.0703 33.278C37.0703 36.8861 34.4658 39.8792 31.0525 40.4445C31.4339 40.5077 31.8252 40.5411 32.2244 40.5411C36.1951 40.5411 39.4141 37.2893 39.4141 33.278C39.4141 29.2667 36.1951 26.0149 32.2244 26.0149Z" fill="#2E3A57"/>
<path d="M7.77563 26.0149C3.80484 26.0149 0.585938 29.2667 0.585938 33.278C0.585938 37.2893 3.80492 40.5411 7.77563 40.5411C11.7464 40.5411 14.9653 37.2893 14.9653 33.278C14.9654 29.2667 11.7464 26.0149 7.77563 26.0149ZM7.77563 38.1856C5.10359 38.1856 2.92969 35.984 2.92969 33.278C2.92969 30.5719 5.10359 28.3704 7.77563 28.3704C10.4477 28.3704 12.6216 30.5719 12.6216 33.278C12.6216 35.984 10.4477 38.1856 7.77563 38.1856Z" fill="#2E3A57"/>
<path d="M7.77563 26.0149C7.37649 26.0149 6.98517 26.0483 6.60376 26.1115C10.017 26.6768 12.6216 29.6699 12.6216 33.278C12.6216 36.8861 10.017 39.8792 6.60376 40.4445C6.98517 40.5077 7.37649 40.5411 7.77563 40.5411C11.7464 40.5411 14.9653 37.2893 14.9653 33.278C14.9654 29.2667 11.7464 26.0149 7.77563 26.0149Z" fill="#2E3A57"/>
<path d="M18.4177 33.8669H7.9411C7.70117 33.8669 7.48547 33.7199 7.39672 33.4959C7.30797 33.2719 7.36406 33.0161 7.53828 32.8503L15.1734 25.5872C15.4084 25.3636 15.7793 25.3739 16.0017 25.6101C16.2242 25.8463 16.214 26.219 15.979 26.4426L9.4125 32.6892H18.4178C18.7414 32.6892 19.0038 32.9529 19.0038 33.2781C19.0038 33.6033 18.7413 33.8669 18.4177 33.8669Z" fill="white"/>
<path d="M18.4177 33.8669C18.3809 33.8669 18.3439 33.8634 18.307 33.8563C18.1099 33.8182 17.9458 33.6813 17.8724 33.4935L13.3156 21.8463C13.1972 21.5436 13.3454 21.2018 13.6465 21.0827C13.9476 20.9638 14.2877 21.1126 14.4062 21.4152L18.6246 32.1974L27.4821 22.733C27.7038 22.496 28.0747 22.4847 28.3104 22.7075C28.5461 22.9303 28.5574 23.3029 28.3357 23.5399L18.8445 33.6814C18.7327 33.8009 18.5777 33.8669 18.4177 33.8669Z" fill="white"/>
<path d="M32.2247 33.8671C31.9972 33.8671 31.7807 33.7331 31.6857 33.5096L24.8948 17.5506L24.0573 15.584C23.9765 15.3945 23.793 15.272 23.5898 15.272H21.9177C21.5941 15.272 21.3318 15.0083 21.3318 14.6831C21.3318 14.3579 21.5941 14.0942 21.9177 14.0942H23.5898C24.2626 14.0942 24.869 14.497 25.1345 15.1205L25.9722 17.0873L32.7631 33.0464C32.8904 33.3455 32.7523 33.6915 32.4548 33.8194C32.3796 33.8518 32.3015 33.8671 32.2247 33.8671Z" fill="white"/>
<path d="M11.5852 20.0151H16.855C17.2701 20.0151 17.6066 20.3549 17.6066 20.7742C17.6066 21.1074 17.3914 21.4016 17.0761 21.4997L12.5412 22.9091C12.1959 23.0165 11.8237 22.8603 11.6552 22.5374L10.9202 21.1279C10.6566 20.6225 11.0195 20.0151 11.5852 20.0151Z" fill="#ABDF3A"/>
<path d="M18.6514 35.3247H7.6746C6.55281 35.3247 5.64343 34.4108 5.64343 33.2834V33.2728C5.64343 32.1454 6.55281 31.2314 7.6746 31.2314H18.6514C19.7732 31.2314 20.6826 32.1454 20.6826 33.2728V33.2834C20.6825 34.4108 19.7731 35.3247 18.6514 35.3247Z" fill="#ABDF3A"/>
<path d="M18.6514 31.2314H17.0889C18.2107 31.2314 19.1201 32.1454 19.1201 33.2728V33.2834C19.1201 34.4108 18.2107 35.3247 17.0889 35.3247H18.6514C19.7732 35.3247 20.6826 34.4108 20.6826 33.2834V33.2728C20.6825 32.1454 19.7731 31.2314 18.6514 31.2314Z" fill="#ABDF3A"/>
<path d="M21.902 38.4901H20.3342C20.0976 38.4901 19.8842 38.3471 19.7933 38.1277L17.877 33.5045C17.7525 33.2042 17.8938 32.8595 18.1925 32.7344C18.4911 32.6094 18.8342 32.7513 18.9588 33.0515L20.7249 37.3123H21.9021C22.2258 37.3123 22.4881 37.576 22.4881 37.9012C22.4881 38.2264 22.2256 38.4901 21.902 38.4901Z" fill="white"/>
<path d="M21.8966 38.4906H18.7491C18.4255 38.4906 18.1631 38.2268 18.1631 37.9014C18.1631 37.576 18.4255 37.3123 18.7491 37.3123H21.8966C22.2202 37.3123 22.4825 37.576 22.4825 37.9014C22.4825 38.2268 22.2202 38.4906 21.8966 38.4906Z" fill="#2E3A57"/>
<path d="M16.8981 29.9843C16.622 29.9843 16.3762 29.7874 16.323 29.5047C16.263 29.1851 16.472 28.8771 16.7901 28.8167C19.6824 28.2676 22.0229 26.4065 23.7465 23.2848C25.0514 20.9214 25.4842 18.7112 25.4884 18.6892C25.5495 18.3698 25.8565 18.1608 26.1744 18.2221C26.4923 18.2836 26.7003 18.5922 26.6392 18.9116C26.6205 19.0092 26.1658 21.3302 24.7711 23.8564C22.8973 27.2501 20.2126 29.3656 17.0076 29.9741C16.9708 29.981 16.9341 29.9843 16.8981 29.9843Z" fill="white"/>
<path d="M7.75805 12.316C9.73048 12.316 11.3295 10.709 11.3295 8.72671C11.3295 6.74442 9.73048 5.13745 7.75805 5.13745C5.78562 5.13745 4.18665 6.74442 4.18665 8.72671C4.18665 10.709 5.78562 12.316 7.75805 12.316Z" fill="#ABDF3A"/>
<path d="M7.75806 0.929932C7.43446 0.929932 7.17212 1.19352 7.17212 1.51865V2.95403C7.17212 3.27916 7.43446 3.54275 7.75806 3.54275C8.08165 3.54275 8.34399 3.27916 8.34399 2.95403V1.51865C8.34399 1.19352 8.08165 0.929932 7.75806 0.929932Z" fill="white"/>
<path d="M4.67938 2.18974C4.51758 1.90817 4.15922 1.81162 3.87899 1.97427C3.59875 2.13683 3.50274 2.4969 3.66453 2.77846L4.37883 4.02152C4.48735 4.21039 4.6843 4.31596 4.8868 4.31596C4.98617 4.31596 5.08696 4.29053 5.17922 4.237C5.45946 4.07443 5.55547 3.71437 5.39367 3.4328L4.67938 2.18974Z" fill="white"/>
<path d="M1.25383 5.63263L2.49102 6.3505C2.58329 6.40405 2.68407 6.42949 2.78344 6.42949C2.98594 6.42949 3.1829 6.32381 3.29141 6.13498C3.45321 5.85334 3.35719 5.49319 3.07696 5.33058L1.83977 4.61272C1.55946 4.45003 1.20118 4.54661 1.03938 4.82824C0.877585 5.10988 0.9736 5.47011 1.25383 5.63263Z" fill="white"/>
<path d="M2.60047 8.7271C2.60047 8.40173 2.33812 8.13794 2.01453 8.13794H0.585938C0.262344 8.13794 0 8.40173 0 8.7271C0 9.05247 0.262344 9.31626 0.585938 9.31626H2.01453C2.33812 9.31626 2.60047 9.05247 2.60047 8.7271Z" fill="white"/>
<path d="M2.49102 11.1029L1.25383 11.8208C0.9736 11.9834 0.877585 12.3435 1.03938 12.6252C1.1479 12.8141 1.34485 12.9197 1.54735 12.9197C1.64673 12.9197 1.74751 12.8943 1.83977 12.8407L3.07696 12.1228C3.35719 11.9602 3.45321 11.6001 3.29141 11.3184C3.12962 11.0368 2.77133 10.9403 2.49102 11.1029Z" fill="white"/>
<path d="M5.17922 13.2157C4.89899 13.0531 4.54063 13.1496 4.37883 13.4312L3.66453 14.6743C3.50274 14.9558 3.59875 15.3159 3.87899 15.4785C3.97125 15.532 4.07203 15.5574 4.17141 15.5574C4.37391 15.5574 4.57086 15.4518 4.67938 15.263L5.39367 14.0199C5.55547 13.7384 5.45946 13.3783 5.17922 13.2157Z" fill="white"/>
<path d="M7.75806 13.9102C7.43446 13.9102 7.17212 14.1737 7.17212 14.4989V15.9343C7.17212 16.2594 7.43446 16.523 7.75806 16.523C8.08165 16.523 8.34399 16.2594 8.34399 15.9343V14.4989C8.34399 14.1737 8.08165 13.9102 7.75806 13.9102Z" fill="white"/>
<path d="M11.1372 13.4312C10.9754 13.1495 10.617 13.0531 10.3368 13.2157C10.0565 13.3783 9.96053 13.7383 10.1223 14.0199L10.8366 15.263C10.9451 15.4518 11.1421 15.5574 11.3446 15.5574C11.444 15.5574 11.5448 15.532 11.637 15.4784C11.9173 15.3159 12.0133 14.9558 11.8515 14.6742L11.1372 13.4312Z" fill="white"/>
<path d="M14.2622 11.8208L13.025 11.103C12.7448 10.9403 12.3864 11.0368 12.2246 11.3185C12.0628 11.6001 12.1588 11.9603 12.4391 12.1229L13.6763 12.8408C13.7685 12.8943 13.8693 12.9197 13.9687 12.9197C14.1712 12.9197 14.3681 12.8141 14.4767 12.6252C14.6385 12.3436 14.5425 11.9834 14.2622 11.8208Z" fill="white"/>
<path d="M14.9301 8.13794H13.5015C13.1779 8.13794 12.9156 8.40173 12.9156 8.7271C12.9156 9.05247 13.1779 9.31626 13.5015 9.31626H14.9301C15.2537 9.31626 15.516 9.05247 15.516 8.7271C15.516 8.40173 15.2538 8.13794 14.9301 8.13794Z" fill="white"/>
<path d="M12.7326 6.42945C12.832 6.42945 12.9327 6.40402 13.025 6.35047L14.2622 5.6326C14.5424 5.46999 14.6385 5.10984 14.4767 4.82821C14.3149 4.54657 13.9564 4.45008 13.6763 4.61268L12.4391 5.33055C12.1588 5.49316 12.0628 5.85331 12.2246 6.13494C12.3331 6.32385 12.5301 6.42945 12.7326 6.42945Z" fill="white"/>
<path d="M11.637 1.97429C11.3567 1.81164 10.9984 1.90811 10.8366 2.18976L10.1223 3.43282C9.96053 3.71439 10.0565 4.07445 10.3368 4.23701C10.429 4.29055 10.5298 4.31598 10.6292 4.31598C10.8317 4.31598 11.0287 4.2104 11.1372 4.02154L11.8515 2.77848C12.0133 2.49691 11.9173 2.13685 11.637 1.97429Z" fill="white"/>
<path d="M32.2244 34.5108C32.9022 34.5108 33.4517 33.9587 33.4517 33.2776C33.4517 32.5965 32.9022 32.0444 32.2244 32.0444C31.5465 32.0444 30.997 32.5965 30.997 33.2776C30.997 33.9587 31.5465 34.5108 32.2244 34.5108Z" fill="#2E3A57"/>
</svg>
