<svg width="40" height="26" viewBox="0 0 40 26" fill="none" xmlns="http://www.w3.org/2000/svg">
<path d="M32.7153 6.93228H31.1325C30.2582 6.93228 29.5496 6.22025 29.5496 5.34187C29.5496 4.4635 30.2582 3.75146 31.1325 3.75146H32.7153V6.93228Z" fill="#D3F4F2"/>
<path d="M31.1324 4.35791C30.5925 4.35791 30.1532 4.7994 30.1532 5.3421C30.1532 5.8848 30.5925 6.3263 31.1324 6.3263H32.1117V4.35791H31.1324Z" fill="black"/>
<path d="M32.7154 7.76703C32.382 7.76703 32.1118 7.49544 32.1118 7.16041V3.52043C32.1118 3.1854 32.382 2.91382 32.7154 2.91382C33.0488 2.91382 33.319 3.1854 33.319 3.52043V7.16041C33.319 7.49544 33.0488 7.76703 32.7154 7.76703Z" fill="black"/>
<path d="M15.0748 9.92379H12.1447C11.8114 9.92379 11.5411 9.65207 11.5411 9.31687C11.5411 8.98168 11.8114 8.70996 12.1447 8.70996H15.0748C15.4082 8.70996 15.6784 8.98168 15.6784 9.31687C15.6784 9.65207 15.4082 9.92379 15.0748 9.92379Z" fill="#ABDF3A"/>
<path d="M14.0921 8.14571H12.2342C11.9009 8.14571 11.6306 7.87399 11.6306 7.5388C11.6306 7.20361 11.9009 6.93188 12.2342 6.93188H14.0921C14.4255 6.93188 14.6957 7.20361 14.6957 7.5388C14.6957 7.87399 14.4255 8.14571 14.0921 8.14571Z" fill="#ABDF3A"/>
<path d="M33.0565 11.3758C33.0376 11.375 33.0178 11.375 32.9988 11.375C31.4762 11.375 30.0665 11.8636 28.918 12.695C28.8257 12.7608 28.7349 12.8298 28.6457 12.9013C27.0315 14.1895 25.9976 16.1791 25.9976 18.4113C25.9976 22.2967 29.1319 25.4475 32.9988 25.4475C36.8657 25.4475 40.0001 22.2966 40.0001 18.4113C40.0001 14.5441 36.8965 11.4067 33.0565 11.3758ZM32.9988 23.2922C30.3167 23.2922 28.1422 21.1068 28.1422 18.4113C28.1422 17.0437 28.7018 15.8078 29.6032 14.9209C30.4786 14.0602 31.6775 13.5295 32.9988 13.5295C33.2498 13.5295 33.4961 13.5485 33.7369 13.5859C36.0685 13.9429 37.8555 15.9673 37.8555 18.4113C37.8554 21.1068 35.6809 23.2922 32.9988 23.2922Z" fill="#1B201C"/>
<path d="M33.7368 13.585C33.4961 13.5478 33.2498 13.5287 32.9988 13.5287C31.6775 13.5287 30.4785 14.0592 29.6032 14.9197L28.9283 12.7285L28.9181 12.6944C30.0665 11.8633 31.4763 11.3748 32.9989 11.3748C33.0178 11.3748 33.0375 11.3748 33.0565 11.3755L33.7368 13.585Z" fill="#1B201C"/>
<path d="M13.4286 15.4196C13.3797 15.3156 13.3291 15.2133 13.2754 15.1118C12.1001 12.8891 9.77169 11.3748 7.09036 11.3748C3.22349 11.3748 0.0891113 14.5248 0.0891113 18.411C0.0891113 18.4642 0.0898926 18.5173 0.0914551 18.5697C0.175127 22.3821 3.2763 25.4473 7.09028 25.4473C10.5972 25.4473 13.5018 22.8557 14.0118 19.4748C14.0647 19.1274 14.0915 18.7728 14.0915 18.4111C14.0916 17.3408 13.854 16.327 13.4286 15.4196ZM7.09036 23.2919C5.21497 23.2919 3.58739 22.2233 2.77833 20.659C2.43028 19.9863 2.23372 19.2216 2.23372 18.4109C2.23372 15.7146 4.40825 13.5291 7.09036 13.5291C8.61294 13.5291 9.97216 14.2336 10.8625 15.3362C11.5405 16.1754 11.947 17.2456 11.947 18.4109C11.947 18.7091 11.9202 19.0018 11.8689 19.285C11.8579 19.3485 11.8444 19.412 11.831 19.4747C11.3479 21.6586 9.40942 23.2919 7.09036 23.2919Z" fill="#1B201C"/>
<path d="M14.0916 18.411C14.0916 18.7728 14.0647 19.1273 14.0119 19.4748H11.8311C11.8445 19.4121 11.8579 19.3487 11.869 19.2852C11.9203 19.002 11.9471 18.7092 11.9471 18.411C11.9471 17.2456 11.5406 16.1755 10.8625 15.3363C11.1515 15.1927 11.4766 15.1118 11.82 15.1118H13.2754C13.3291 15.2133 13.3797 15.3157 13.4286 15.4196C13.854 16.3272 14.0916 17.341 14.0916 18.411Z" fill="#1B201C"/>
<path d="M11.8688 19.2852C11.9201 19.002 11.9469 18.7093 11.9469 18.411C11.9469 15.7147 9.77239 13.5293 7.09028 13.5293C4.40817 13.5293 2.23364 15.7147 2.23364 18.411C2.23364 19.2217 2.43021 19.9864 2.77825 20.6592C1.68028 20.2593 0.742627 19.5208 0.0914551 18.5697C0.0898926 18.5173 0.0891113 18.4642 0.0891113 18.411C0.0891113 14.5248 3.22349 11.3748 7.09036 11.3748C9.89325 11.3748 12.3109 13.0295 13.4286 15.4196C13.4269 16.9189 12.8333 18.2833 11.8688 19.2852Z" fill="#1B201C"/>
<path d="M33.2901 19.5152C33.1929 19.5453 33.0951 19.5596 32.998 19.5596C32.5773 19.5596 32.1874 19.2868 32.0564 18.8607L29.6118 10.9226L20.3358 16.5619L19.391 17.1362L17.7366 18.142C17.5827 18.2356 17.4059 18.2848 17.2259 18.2848H11.8199C11.2745 18.2848 10.8333 17.8413 10.8333 17.2932C10.8333 16.7458 11.2745 16.3016 11.8199 16.3016H16.9504L18.9435 15.0895L19.6239 14.6762L28.8241 9.08367H15.3766V7.10052H28.4343L27.1943 2.85023L26.9756 2.10143C26.8146 1.57867 27.1058 1.02341 27.6268 0.860723C28.1477 0.698903 28.7002 0.991609 28.8612 1.51515L29.2661 2.85023L29.3719 3.19923L30.8606 8.10952L33.9413 18.2744C34.1023 18.7972 33.8111 19.3534 33.2901 19.5152Z" fill="#ABDF3A"/>
<path d="M30.8606 8.10975C29.4619 7.97172 28.3656 6.78347 28.3656 5.34208C28.3656 4.4806 28.7579 3.70872 29.372 3.19946L30.8606 8.10975Z" fill="#799E29"/>
<path d="M29.2661 2.84973H27.1942L26.9755 2.10111C26.8145 1.57848 27.1057 1.02336 27.6267 0.860712C28.1476 0.698932 28.7001 0.991565 28.8611 1.51498L29.2661 2.84973Z" fill="#799E29"/>
<path d="M13.3583 16.3018C13.2439 17.0173 12.9944 17.6876 12.6353 18.2849H11.8199C11.2745 18.2849 10.8333 17.8414 10.8333 17.2933C10.8333 16.746 11.2745 16.3018 11.8199 16.3018H13.3583Z" fill="#799E29"/>
<path d="M17.5511 9.08398H15.3766V7.10083H17.091L17.5511 9.08398Z" fill="#799E29"/>
<path d="M20.3358 16.5614L17.7366 18.1412C17.5827 18.2347 17.4059 18.2839 17.2259 18.2839H14.0884C13.8468 17.8231 13.7103 17.2981 13.7103 16.7413C13.7103 16.5923 13.7198 16.4456 13.7395 16.3012H16.9505L19.6239 14.6763C20.0382 15.1997 20.2979 15.8516 20.3358 16.5614Z" fill="#799E29"/>
<path d="M17.4501 18.2595C17.3744 18.2769 17.2994 18.2857 17.2252 18.2857C16.7769 18.2857 16.3711 17.9763 16.2646 17.5186L15.4097 13.8339L13.4404 5.34048L13.1309 4.00619C13.007 3.47236 13.3369 2.93924 13.8681 2.8155C14.3985 2.69019 14.929 3.02254 15.0529 3.55558L15.4491 5.26503L17.3419 13.4253L18.1865 17.068C18.3105 17.602 17.9805 18.135 17.4501 18.2595Z" fill="#ABDF3A"/>
<path d="M15.4492 5.26449C14.8556 5.30892 14.1871 5.33113 13.4404 5.33985L13.1309 4.00588C13.007 3.47219 13.3369 2.9392 13.8681 2.81549C14.3985 2.69021 14.929 3.02248 15.0529 3.55539L15.4492 5.26449Z" fill="#799E29"/>
<path d="M17.4501 18.2596C17.3743 18.277 17.2993 18.2857 17.2251 18.2857C16.7768 18.2857 16.3711 17.9764 16.2645 17.5187L15.4097 13.834C15.888 13.5643 16.439 13.4104 17.0254 13.4104C17.1319 13.4104 17.2377 13.4152 17.3419 13.4255L18.1864 17.0681C18.3104 17.602 17.9804 18.1351 17.4501 18.2596Z" fill="#799E29"/>
<path d="M17.0258 18.8839C18.2028 18.8839 19.157 17.9249 19.157 16.742C19.157 15.5591 18.2028 14.6001 17.0258 14.6001C15.8487 14.6001 14.8945 15.5591 14.8945 16.742C14.8945 17.9249 15.8487 18.8839 17.0258 18.8839Z" fill="white"/>
<path d="M17.0254 20.5938H15.4596C15.1262 20.5938 14.856 20.3222 14.856 19.9871C14.856 19.6521 15.1262 19.3805 15.4596 19.3805H16.4218V16.7416C16.4218 16.4066 16.6921 16.135 17.0254 16.135C17.3588 16.135 17.629 16.4066 17.629 16.7416V19.9871C17.629 20.3222 17.3588 20.5938 17.0254 20.5938Z" fill="#1B201C"/>
<path d="M12.2445 8.36816V15.4147C12.2445 17.8365 10.291 19.7999 7.88118 19.7999H4.66243C2.25267 19.7999 0.299072 17.8366 0.299072 15.4147V8.36816H12.2445Z" fill="#2E3A57"/>
<path d="M12.2445 8.36816V11.2421C11.336 12.1496 10.0842 12.7113 8.70524 12.7113H3.83759C2.45868 12.7113 1.20759 12.1496 0.299072 11.2421V8.36816H12.2445Z" fill="#1B201C"/>
<path d="M8.70562 11.5211H3.83727C1.71805 11.5211 0 9.79453 0 7.66463V7.60582C0 7.16645 0.354375 6.8103 0.791562 6.8103H11.7513C12.1885 6.8103 12.5429 7.16645 12.5429 7.60582V7.66463C12.543 9.79453 10.8249 11.5211 8.70562 11.5211Z" fill="#2E3A57"/>
<path d="M6.41841 10.0074C6.08505 10.0074 5.81482 9.73569 5.81482 9.40049V9.28172C5.81482 8.94653 6.08505 8.6748 6.41841 8.6748C6.75177 8.6748 7.02201 8.94653 7.02201 9.28172V9.40049C7.02201 9.73569 6.75177 10.0074 6.41841 10.0074Z" fill="#ABDF3A"/>
<path d="M10.1724 1.44156C10.1724 1.44156 9.76151 4.16695 12.9181 4.15384C16.0746 4.14073 18.9928 3.93106 17.7257 2.31483C16.7513 1.07177 13.5913 3.08307 11.8126 0.665705C11.0423 -0.381197 10.1724 0.468366 10.1724 1.44156Z" fill="white"/>
<path d="M32.7153 6.93228H31.1325C30.2582 6.93228 29.5496 6.22025 29.5496 5.34187C29.5496 4.4635 30.2582 3.75146 31.1325 3.75146H32.7153V6.93228Z" fill="white"/>
<path d="M32.7154 7.76703C32.382 7.76703 32.1118 7.49544 32.1118 7.16041V3.52043C32.1118 3.1854 32.382 2.91382 32.7154 2.91382C33.0488 2.91382 33.319 3.1854 33.319 3.52043V7.16041C33.319 7.49544 33.0488 7.76703 32.7154 7.76703Z" fill="white"/>
<path d="M24.005 3.37843C23.8224 3.37843 23.6399 3.30848 23.5005 3.16845C23.2218 2.88845 23.2218 2.43459 23.5005 2.15459L24.3618 1.28925C25.0437 0.604138 25.9504 0.226807 26.9146 0.226807H30.9933C31.3874 0.226807 31.7068 0.547777 31.7068 0.943712C31.7068 1.33965 31.3874 1.66062 30.9933 1.66062H26.9146C26.3315 1.66062 25.7832 1.8888 25.3708 2.30311L24.5096 3.16845C24.3702 3.30848 24.1877 3.37843 24.005 3.37843Z" fill="#ABDF3A"/>
</svg>
