<svg width="380" height="441" viewBox="0 0 380 441" fill="none" xmlns="http://www.w3.org/2000/svg">
<path d="M6.37891 440L4 89H376L375 440" stroke="url(#paint0_linear_165_113)" stroke-width="6"/>
<path d="M187.5 17L129 51V116L187.5 149.5L242.5 116V51L187.5 17Z" stroke="#ABDF3A" stroke-width="3"/>
<path d="M195.5 2L137 36V101L195.5 134.5L250.5 101V36L195.5 2Z" fill="#1B201C" stroke="#ABDF3A" stroke-width="3"/>
<path d="M230.948 64.2758C230.031 62.9312 228.643 62.0208 227.037 61.7153C225.429 61.4079 223.802 61.7419 222.455 62.6534L205.586 74.0727C204.807 74.6009 203.866 74.794 202.939 74.6177L200.757 74.2002C200.843 73.9422 200.913 73.6778 200.965 73.4076C201.272 71.8061 200.935 70.1791 200.018 68.8316C199.102 67.4823 197.714 66.5708 196.108 66.2635L170.214 61.31C167.891 60.8664 165.546 61.4972 163.762 63.0396L156.652 67.8516C156.244 68.1276 156 68.5892 156 69.082L156.019 90.2674C156.019 90.7852 156.291 91.2665 156.733 91.535C156.969 91.6776 157.236 91.7501 157.504 91.7501C157.738 91.7501 157.973 91.695 158.187 91.5837L176.784 81.9416C177.111 82.0703 177.452 82.1701 177.803 82.2385L204.476 87.3329C204.878 87.41 205.282 87.4471 205.682 87.4471C206.94 87.4471 208.169 87.0731 209.233 86.353L229.321 72.7576H229.322C230.67 71.8444 231.582 70.458 231.889 68.8524C232.196 67.2475 231.862 65.6222 230.948 64.2758V64.2758ZM158.987 87.8252L158.969 69.8677L164.75 65.9544L174.244 79.9139L158.987 87.8252ZM228.973 68.2941C228.814 69.1192 228.347 69.8318 227.657 70.2997L207.57 83.8951C206.821 84.4013 205.92 84.5868 205.034 84.4175L178.361 79.3231C177.693 79.1955 177.112 78.8227 176.726 78.2811L176.712 78.2631C176.708 78.2573 176.704 78.251 176.699 78.2452L168.755 66.5633L167.273 64.3842C168.029 64.1303 168.845 64.0711 169.657 64.2254L195.55 69.1789C196.377 69.3378 197.093 69.8068 197.563 70.5015C198.035 71.1932 198.207 72.027 198.05 72.8463C197.998 73.12 197.909 73.3838 197.789 73.6303L186.315 71.4362C185.509 71.2819 184.731 71.8107 184.577 72.615C184.423 73.4209 184.951 74.1991 185.757 74.3516L198.189 76.7312L202.381 77.5326C204.087 77.8596 205.816 77.503 207.251 76.5306L224.121 65.1113C224.811 64.6423 225.65 64.4735 226.479 64.6307C227.308 64.7895 228.023 65.2569 228.492 65.9457C228.96 66.6346 229.131 67.469 228.973 68.2941V68.2941Z" fill="#ABDF3A"/>
<path d="M193.999 62.6562C184.996 62.6562 177.671 55.3312 177.671 46.3281C177.671 37.325 184.996 30 193.999 30C203.002 30 210.327 37.325 210.327 46.3281C210.327 55.3312 203.002 62.6562 193.999 62.6562ZM193.999 32.9688C186.633 32.9688 180.64 38.9619 180.64 46.3281C180.64 53.6943 186.633 59.6875 193.999 59.6875C201.366 59.6875 207.358 53.6943 207.358 46.3281C207.358 38.9619 201.366 32.9688 193.999 32.9688Z" fill="#ABDF3A"/>
<path d="M191.561 52.3718C191.181 52.3718 190.801 52.2268 190.511 51.9369L186.27 47.696C185.69 47.1161 185.69 46.1762 186.27 45.5964C186.85 45.0172 187.789 45.0172 188.369 45.5964L191.561 48.7878L199.629 40.7194C200.209 40.1396 201.149 40.1396 201.729 40.7194C202.308 41.2987 202.308 42.2386 201.729 42.8184L192.61 51.9369C192.32 52.2268 191.94 52.3718 191.561 52.3718V52.3718Z" fill="#ABDF3A"/>
<path d="M217.563 87.1495C217.088 87.1495 216.622 86.9222 216.335 86.5001C215.874 85.8217 216.049 84.8986 216.727 84.4376L227.659 77.0024C228.337 76.5415 229.261 76.7172 229.722 77.3956C230.183 78.0734 230.007 78.9965 229.329 79.4574L218.397 86.8927C218.141 87.066 217.851 87.1495 217.563 87.1495V87.1495Z" fill="#ABDF3A"/>
<path d="M213.313 90.0406C212.494 90.0406 211.828 89.3762 211.828 88.5563C211.828 87.737 212.492 87.0719 213.312 87.0719H213.313C214.133 87.0719 214.797 87.737 214.797 88.5563C214.797 89.3762 214.133 90.0406 213.313 90.0406V90.0406Z" fill="#ABDF3A"/>
<defs>
<linearGradient id="paint0_linear_165_113" x1="190.689" y1="89" x2="190.689" y2="440" gradientUnits="userSpaceOnUse">
<stop stop-color="#ABDF3A"/>
<stop offset="0.833333" stop-color="#ABDF3A" stop-opacity="0.0208333"/>
<stop offset="1" stop-color="#ABDF3A" stop-opacity="0"/>
</linearGradient>
</defs>
</svg>
