<svg width="40" height="36" viewBox="0 0 40 36" fill="none" xmlns="http://www.w3.org/2000/svg">
<path d="M22.5213 15.2561H18.2541C18.2928 15.2981 18.317 15.3539 18.317 15.4156V18.2297H19.3475L16.7892 20.8007C17.0259 21.3297 17.0311 21.8586 17.0311 21.8586V23.6869L23.4657 17.8872C23.7924 17.6145 24.0007 17.2032 24.0007 16.743C24.0007 15.9218 23.3384 15.2561 22.5213 15.2561Z" fill="white"/>
<path d="M18.1917 15.1802H16.293L14.2726 17.2107C14.2421 17.2414 14.2421 17.291 14.2726 17.3217L16.2601 19.3191H18.1917C18.3212 19.3191 18.4261 19.2137 18.4261 19.0836V15.4157C18.4261 15.2856 18.3212 15.1802 18.1917 15.1802Z" fill="#799E29"/>
<path d="M6.90281 22.4512C3.41406 22.4512 0.585938 25.2935 0.585938 28.7997C0.585938 32.3059 3.41406 35.1482 6.90281 35.1482C10.3916 35.1482 13.2198 32.3059 13.2198 28.7997C13.2198 25.2935 10.3917 22.4512 6.90281 22.4512ZM6.90281 33.4553C4.34852 33.4553 2.27039 31.3668 2.27039 28.7997C2.27039 26.2326 4.34852 24.1441 6.90281 24.1441C9.45719 24.1441 11.5353 26.2326 11.5353 28.7997C11.5353 31.3668 9.45726 33.4553 6.90281 33.4553Z" fill="#121717"/>
<path d="M6.90281 34.0441C4.02539 34.0441 1.68445 31.6914 1.68445 28.7996C1.68445 25.9078 4.02539 23.5552 6.90281 23.5552C9.78023 23.5552 12.1212 25.9078 12.1212 28.7996C12.1212 31.6914 9.78031 34.0441 6.90281 34.0441ZM6.90281 24.7329C4.67164 24.7329 2.85632 26.5572 2.85632 28.7996C2.85632 31.042 4.67156 32.8663 6.90281 32.8663C9.13413 32.8663 10.9494 31.042 10.9494 28.7996C10.9494 26.5572 9.13413 24.7329 6.90281 24.7329Z" fill="#2E3A57"/>
<path d="M32.1707 22.4512C28.6819 22.4512 25.8537 25.2935 25.8537 28.7997C25.8537 32.3059 28.6818 35.1482 32.1707 35.1482C35.6594 35.1482 38.4875 32.3059 38.4875 28.7997C38.4876 25.2935 35.6594 22.4512 32.1707 22.4512ZM32.1707 33.4553C29.6164 33.4553 27.5382 31.3668 27.5382 28.7997C27.5382 26.2326 29.6164 24.1441 32.1707 24.1441C34.7249 24.1441 36.8031 26.2326 36.8031 28.7997C36.8031 31.3668 34.7249 33.4553 32.1707 33.4553Z" fill="#121717"/>
<path d="M32.1706 34.0441C29.2932 34.0441 26.9523 31.6914 26.9523 28.7996C26.9523 25.9078 29.2932 23.5552 32.1706 23.5552C35.048 23.5552 37.389 25.9078 37.389 28.7996C37.389 31.6914 35.048 34.0441 32.1706 34.0441ZM32.1706 24.7329C29.9394 24.7329 28.1241 26.5572 28.1241 28.7996C28.1241 31.042 29.9394 32.8663 32.1706 32.8663C34.4019 32.8663 36.2171 31.042 36.2171 28.7996C36.2171 26.5572 34.4019 24.7329 32.1706 24.7329Z" fill="#2E3A57"/>
<path d="M14.5613 29.3616C14.5613 29.2329 14.6428 29.1153 14.7641 29.0689C14.7966 29.0564 14.817 29.0239 14.8141 28.989L14.7498 28.2108H8.2789L13.7831 22.4556C13.7737 22.4495 13.7648 22.4427 13.7566 22.4344L12.9516 21.6255L6.64297 28.2217C6.43601 28.438 6.37375 28.7287 6.48031 28.9804C6.58695 29.2321 6.83875 29.3884 7.13726 29.3884H14.5613V29.3616Z" fill="#121717"/>
<path d="M34.2305 18.6845C34.2305 17.4496 33.2309 16.4451 32.0022 16.4451H29.9133C30.0053 16.613 30.0578 16.8057 30.0578 17.0105C30.0578 17.2349 29.9939 17.4441 29.885 17.6228H32.0023C32.5848 17.6228 33.0587 18.0991 33.0587 18.6845C33.0587 19.27 32.5848 19.7463 32.0023 19.7463H16.6024C16.5988 19.782 16.5839 19.8153 16.5583 19.8411L16.3269 20.0737C16.3114 20.0892 16.3032 20.1106 16.3041 20.1325C16.305 20.1545 16.3151 20.175 16.3317 20.1892C16.5741 20.3947 16.7326 20.6629 16.8367 20.924H26.3094L20.3142 27.1925C20.6718 27.3692 20.9782 27.6349 21.205 27.9606L27.9348 20.924H28.3039L31.629 29.0244C31.7223 29.2516 31.9406 29.3888 32.171 29.3888C32.2454 29.3888 32.3211 29.3745 32.3942 29.3442C32.6203 29.2504 32.7569 29.0308 32.7568 28.7993C32.7568 28.7246 32.7425 28.6486 32.7124 28.5752L29.5717 20.9239H32.0023C33.2309 20.924 34.2305 19.9193 34.2305 18.6845Z" fill="#121717"/>
<path d="M19.2841 26.8735C18.2638 26.8735 17.3915 27.5079 17.0348 28.4054V28.969C17.0348 29.0123 17.0697 29.0475 17.1129 29.0475H18.725C18.8974 29.0475 19.0375 29.1883 19.0375 29.3615V30.354C19.0375 30.5272 18.8974 30.668 18.725 30.668H17.2756C17.7108 31.3156 18.448 31.7415 19.2841 31.7415C20.6217 31.7415 21.706 30.6518 21.706 29.3075C21.706 27.9633 20.6217 26.8735 19.2841 26.8735Z" fill="#6D8F25"/>
<path d="M17.1128 21.8587C17.1128 21.8587 17.1009 20.6765 16.3208 20.0796L14.1772 22.2338L14.7428 29.0761C14.784 29.0611 14.8277 29.0516 14.8737 29.0516H17.1128V21.8587Z" fill="white"/>
<path d="M17.8773 5.82933C17.8773 7.63872 19.3369 9.1057 21.1374 9.1057C22.9379 9.1057 24.3974 7.63872 24.3974 5.82933V4.1001H17.8773V5.82933Z" fill="white"/>
<path d="M17.8859 4.1001C17.8802 4.17932 17.8773 4.25933 17.8773 4.34004V5.82933C17.8773 7.12907 18.6305 8.25208 19.7221 8.78159V4.1001H17.8859Z" fill="#2E3A57"/>
<path d="M21.1375 0.160156C19.3369 0.160156 17.8773 1.06144 17.8773 2.87091V2.96521H15.1367C14.7912 2.96521 14.5112 3.24668 14.5112 3.5938C14.5112 3.941 14.7912 4.2224 15.1367 4.2224H24.3974V2.96528V2.96136C24.3974 1.15189 22.9379 0.160156 21.1375 0.160156Z" fill="#799E29"/>
<path opacity="0.1" d="M21.1375 0.160156C20.9777 0.160156 20.8208 0.167615 20.6671 0.181826C22.2559 0.333833 23.4799 1.30444 23.4799 2.96136V2.96528V4.22248H24.3974V2.96528V2.96136C24.3974 1.15189 22.9379 0.160156 21.1375 0.160156Z" fill="black"/>
<path d="M19.1156 30.354C19.1156 30.5699 18.9399 30.7466 18.725 30.7466H14.8738C14.659 30.7466 14.4832 30.5699 14.4832 30.354V29.3616C14.4832 29.1457 14.659 28.969 14.8738 28.969H18.725C18.9399 28.969 19.1156 29.1457 19.1156 29.3616V30.354Z" fill="#2E3A57"/>
<g opacity="0.1">
<path d="M16.0938 30.354V29.3616C16.0938 29.1457 16.2695 28.969 16.4844 28.969H14.8738C14.659 28.969 14.4832 29.1457 14.4832 29.3616V30.354C14.4832 30.5699 14.659 30.7466 14.8738 30.7466H16.4844C16.2695 30.7466 16.0938 30.5699 16.0938 30.354Z" fill="#2E3A57"/>
</g>
<path d="M14.268 17.3264L19.1094 12.4608C19.0399 12.5067 18.9591 12.5307 18.8774 12.5307C18.8116 12.5307 18.7453 12.5151 18.684 12.4832C17.3095 11.768 16.4558 10.3566 16.4558 8.79975C16.4558 8.48647 16.491 8.1732 16.5606 7.86848C16.5755 7.80315 16.6057 7.74277 16.6481 7.69189C16.597 7.73249 16.547 7.77551 16.4998 7.82294L10.6557 13.6963L14.268 17.3264Z" fill="#799E29"/>
<path opacity="0.1" d="M11.4422 14.4865L16.3816 9.52235C16.3519 9.32088 16.3362 9.11556 16.3362 8.90758C16.3362 8.5943 16.3715 8.28102 16.4411 7.9763C16.4583 7.90085 16.4966 7.83262 16.55 7.77734C16.5334 7.79273 16.516 7.80663 16.4999 7.8228L10.6558 13.6962L11.4422 14.4865Z" fill="black"/>
<path d="M29.8202 14.6636H27.4213L23.6236 12.5878L18.8823 7.82272C18.5653 7.50426 18.1423 7.32886 17.6911 7.32886C17.2763 7.32886 16.8789 7.48008 16.5716 7.75465C16.5062 7.81314 16.4606 7.89056 16.4411 7.97622C16.3715 8.28094 16.3362 8.59422 16.3362 8.90749C16.3362 10.4643 17.19 11.8757 18.5644 12.591C18.6256 12.6229 18.692 12.6384 18.7578 12.6384C18.867 12.6384 18.9749 12.5957 19.0558 12.5144L19.4834 12.0846L22.5284 14.546C22.5554 14.5678 22.5848 14.5861 22.6162 14.6007L27.5605 16.888C27.6096 16.9107 27.6612 16.9225 27.7126 16.9254C27.7143 16.927 27.7162 16.9283 27.718 16.9298C27.7593 16.3179 28.2666 15.8324 28.8858 15.8324C29.5319 15.8324 30.0576 16.3607 30.0576 17.0101C30.0576 17.034 30.0555 17.0575 30.0541 17.081C30.3612 16.9818 30.5834 16.6926 30.5834 16.3509V15.4304C30.5835 15.007 30.2419 14.6636 29.8202 14.6636Z" fill="white"/>
<path d="M28.8859 18.266C29.5763 18.266 30.1359 17.7037 30.1359 17.0101C30.1359 16.3165 29.5763 15.7542 28.8859 15.7542C28.1956 15.7542 27.6359 16.3165 27.6359 17.0101C27.6359 17.7037 28.1956 18.266 28.8859 18.266Z" fill="#121717"/>
<path d="M22.8306 6.48155C22.4851 6.48155 22.2051 6.20008 22.2051 5.85296V5.26849C22.2051 4.92129 22.4851 4.63989 22.8306 4.63989C23.1761 4.63989 23.4561 4.92129 23.4561 5.26849V5.85296C23.4561 6.20015 23.1761 6.48155 22.8306 6.48155Z" fill="#2E3A57"/>
<path d="M39.4141 35.7376H0.585938C0.262266 35.7376 0 35.4739 0 35.1485C0 34.8231 0.262266 34.5593 0.585938 34.5593H39.4141C39.7377 34.5593 40 34.8231 40 35.1485C40 35.4739 39.7377 35.7376 39.4141 35.7376Z" fill="#799E29"/>
<path d="M16.6135 19.5635L10.7232 13.6439C10.7207 13.6413 10.7183 13.6386 10.7157 13.636L8.99448 15.3658C8.33932 16.0243 8.33932 17.1016 8.99448 17.76L13.7012 22.4903C13.747 22.5363 13.807 22.5593 13.8669 22.5593C13.9269 22.5593 13.9868 22.5363 14.0326 22.4903L16.6134 19.8967C16.6574 19.8525 16.6821 19.7926 16.6821 19.7301C16.6821 19.6676 16.6574 19.6077 16.6135 19.5635Z" fill="#6D8F25"/>
</svg>
