<svg width="378" height="443" viewBox="0 0 378 443" fill="none" xmlns="http://www.w3.org/2000/svg">
<path d="M3 89V440H375V89" stroke="url(#paint0_linear_165_112)" stroke-width="6"/>
<path d="M186.5 17L128 51V116L186.5 149.5L241.5 116V51L186.5 17Z" stroke="#ABDF3A" stroke-width="3"/>
<path d="M194.5 2L136 36V101L194.5 134.5L249.5 101V36L194.5 2Z" fill="#1B201C" stroke="#ABDF3A" stroke-width="3"/>
<path d="M226.989 51.6342C226.989 51.6342 226.989 51.6342 226.989 51.6342L226.987 51.6318L222.404 50.978C221.76 50.8862 221.312 50.2897 221.404 49.6455C221.448 49.336 221.613 49.0568 221.863 48.8692L225.567 46.0912C226.088 45.7008 226.193 44.9624 225.803 44.4418L221.561 38.7869C221.171 38.2664 220.433 38.1609 219.912 38.5513L216.209 41.3293C215.691 41.7226 214.952 41.6213 214.559 41.1029C214.368 40.8513 214.286 40.5333 214.331 40.2207L214.986 35.6379C215.079 34.9937 214.631 34.3969 213.987 34.3044C213.987 34.3044 213.987 34.3042 213.986 34.3042L206.993 33.3052C206.349 33.2127 205.752 33.6598 205.659 34.3039C205.659 34.3041 205.659 34.3041 205.659 34.3042L205.004 38.8871C204.913 39.5312 204.316 39.979 203.672 39.8873C203.362 39.8432 203.083 39.6779 202.895 39.4278L200.119 35.7239C199.728 35.2033 198.99 35.0978 198.469 35.4882L194.929 38.1449C193.327 37.9746 191.712 37.9746 190.111 38.1449C179.622 39.3437 171.396 47.7086 170.374 58.2162C170.342 58.5496 170.33 58.8807 170.314 59.2117H169.96C169.401 59.2128 168.92 59.6066 168.808 60.1542L167.994 64.0255L164.733 61.7765C164.265 61.4535 163.633 61.5111 163.231 61.9131L159.697 65.4475C159.295 65.8493 159.238 66.4805 159.56 66.9484L161.798 70.2035L157.926 71.0175C157.384 71.1362 156.999 71.6165 157 72.1709V76.8833C157 77.4406 157.39 77.9218 157.935 78.0367L161.808 78.8508L159.569 82.1059C159.247 82.5737 159.305 83.2049 159.706 83.6068L163.24 87.1411C163.642 87.5431 164.275 87.6007 164.743 87.2778L167.998 85.0335L168.812 88.9059C168.923 89.4536 169.405 89.8473 169.964 89.8484H174.676C175.234 89.8487 175.715 89.4583 175.83 88.913L176.644 85.0405L179.899 87.2789C180.367 87.6011 180.998 87.5437 181.4 87.1423L183.229 85.3068V88.6644C183.235 90.3404 184.133 91.8865 185.586 92.7218V99.2673C185.586 101.87 187.695 103.98 190.298 103.98H195.01C197.613 103.98 199.723 101.87 199.723 99.2673V92.7218C201.176 91.8865 202.074 90.3404 202.079 88.6644V84.0014C202.111 82.0395 203.137 80.2281 204.804 79.1924C205.782 78.5582 206.709 77.8491 207.577 77.0718L206.006 75.3164C205.229 76.0127 204.399 76.6473 203.523 77.2144C201.184 78.6826 199.752 81.2397 199.723 84.0014V88.6644C199.723 89.9657 198.668 91.0206 197.367 91.0206H187.942C186.64 91.0206 185.586 89.9657 185.586 88.6644V83.9037C185.558 81.1942 184.149 78.6864 181.849 77.2544C172.511 71.3872 169.698 59.0614 175.565 49.7239C179.205 43.9304 185.559 40.4042 192.401 40.3797C192.383 40.4217 192.368 40.4646 192.355 40.5081C192.311 40.8174 192.392 41.1315 192.58 41.3811L195.357 45.0839C195.65 45.4628 195.678 45.9832 195.427 46.3916C195.187 46.8025 194.721 47.0266 194.249 46.9583L189.667 46.3032C189.022 46.2109 188.426 46.6581 188.333 47.3021C188.333 47.3026 188.333 47.303 188.333 47.3035L187.333 54.3002C187.24 54.9442 187.688 55.5412 188.332 55.6337C188.332 55.6337 188.332 55.6338 188.333 55.6338L192.916 56.2889C193.56 56.3806 194.008 56.9772 193.916 57.6213C193.872 57.9308 193.707 58.2101 193.456 58.3977L189.754 61.1745C189.233 61.5649 189.128 62.3032 189.518 62.8238L193.759 68.4787C194.15 68.9993 194.888 69.1047 195.409 68.7143L199.113 65.9375C199.634 65.5479 200.372 65.6544 200.762 66.1755C200.948 66.4248 201.028 66.7379 200.985 67.0461L200.331 71.629C200.238 72.273 200.685 72.8701 201.329 72.9626C201.33 72.9626 201.33 72.9626 201.33 72.9626L208.328 73.9628C208.383 73.9699 208.438 73.9734 208.494 73.9734C209.08 73.9741 209.578 73.5433 209.661 72.9626L210.315 68.3798C210.407 67.7356 211.003 67.2878 211.648 67.3795C211.957 67.4236 212.236 67.589 212.424 67.839L215.202 71.5418C215.592 72.0624 216.331 72.1678 216.851 71.7774L222.506 67.5362C223.027 67.1458 223.132 66.4075 222.742 65.8869L219.965 62.1841C219.674 61.8046 219.645 61.2851 219.894 60.8764C220.13 60.4601 220.6 60.2345 221.072 60.3109L225.655 60.9648C226.299 61.0572 226.896 60.61 226.989 59.966C226.989 59.9659 226.989 59.9659 226.989 59.9657L227.988 52.9678C228.08 52.3237 227.633 51.7266 226.989 51.6342ZM187.942 93.3768H197.367V95.733H187.942V93.3768V93.3768ZM187.942 98.0892H197.367V99.2673C197.367 100.569 196.312 101.624 195.01 101.624H190.298C188.997 101.624 187.942 100.569 187.942 99.2673V98.0892V98.0892ZM178.563 77.7728C179.206 78.2988 179.878 78.7886 180.576 79.2395C181.689 79.943 182.527 81.0073 182.95 82.2543L180.423 84.7766L177.976 83.0896C176.905 82.3512 175.438 82.6213 174.699 83.6928C174.522 83.9498 174.398 84.2393 174.333 84.5445L173.716 87.4863H170.916L170.298 84.5493C170.03 83.2759 168.781 82.4608 167.508 82.7288C167.202 82.793 166.913 82.9173 166.656 83.0943L164.208 84.7766L162.061 82.6348L163.747 80.1891C164.486 79.118 164.217 77.6507 163.146 76.9116C162.889 76.7342 162.599 76.6096 162.293 76.5452L159.356 75.9267V73.1275L162.293 72.509C163.566 72.2391 164.379 70.9884 164.109 69.7153C164.045 69.4133 163.923 69.1268 163.748 68.8722L162.061 66.4194L164.208 64.2776L166.657 65.9646C167.729 66.7023 169.196 66.4313 169.934 65.3594C170.11 65.1027 170.234 64.8135 170.298 64.5085L170.505 63.5283C170.693 64.8858 171.006 66.2229 171.439 67.5233C167.562 67.9854 164.795 71.5026 165.257 75.379C165.719 79.2554 169.236 82.0233 173.113 81.5611C175.446 81.2828 177.489 79.8631 178.563 77.7728ZM176.733 76.1128C175.854 78.5582 173.158 79.8273 170.713 78.9477C168.268 78.0679 166.998 75.3726 167.878 72.9273C168.551 71.0566 170.327 69.8106 172.315 69.8147C172.331 69.8147 172.345 69.8147 172.36 69.8147C173.443 72.1507 174.923 74.2815 176.733 76.1128ZM224.816 58.4625L221.4 57.9747C219.468 57.6988 217.677 59.0417 217.401 60.9739C217.269 61.9018 217.51 62.8444 218.073 63.5943L220.143 66.3546L216.373 69.182L214.302 66.4229C213.131 64.8612 210.916 64.5444 209.354 65.7155C208.604 66.2777 208.108 67.1149 207.975 68.0428L207.498 71.464L202.834 70.7972L203.322 67.3807C203.599 65.4485 202.256 63.6578 200.324 63.3812C199.396 63.2482 198.453 63.4897 197.702 64.0526L194.942 66.1225L192.115 62.3526L194.874 60.2815C196.435 59.1104 196.752 56.8951 195.581 55.3336C195.019 54.5837 194.182 54.0879 193.254 53.955L189.837 53.4673L190.504 48.8032L193.921 49.2909C195.853 49.5676 197.644 48.2255 197.92 46.2932C198.053 45.3647 197.812 44.4217 197.249 43.6714L195.172 40.9087L198.942 38.0812L201.013 40.8415C202.184 42.4033 204.399 42.72 205.961 41.549C206.711 40.9867 207.206 40.1496 207.339 39.2216L207.827 35.8051L212.491 36.4708L212.003 39.8873C211.727 41.8197 213.07 43.6098 215.003 43.8858C215.93 44.0183 216.873 43.7768 217.623 43.2142L220.383 41.1443L223.211 44.9143L220.45 46.9854C218.889 48.1564 218.572 50.3717 219.743 51.9333C220.305 52.6831 221.142 53.179 222.07 53.3118L225.487 53.7995L224.816 58.4625Z" fill="#ABDF3A"/>
<path d="M207.659 44.2074C202.453 44.2074 198.234 48.4271 198.234 53.6322C198.234 58.8374 202.453 63.0571 207.659 63.0571C212.864 63.0571 217.083 58.8374 217.083 53.6322C217.078 48.4294 212.861 44.2131 207.659 44.2074ZM207.659 60.7009C203.755 60.7009 200.59 57.5362 200.59 53.6322C200.59 49.7283 203.755 46.5636 207.659 46.5636C211.562 46.5636 214.727 49.7283 214.727 53.6322C214.723 57.5343 211.561 60.6963 207.659 60.7009Z" fill="#ABDF3A"/>
<path d="M193.832 85.13H191.476V88.6643H193.832V85.13Z" fill="#ABDF3A"/>
<path d="M187.501 73.5598C180.229 70.7188 176.636 62.5201 179.477 55.2475C180.578 52.4295 182.554 50.039 185.114 48.4273L183.855 46.434C176.148 51.2894 173.836 61.4734 178.691 69.1805C180.572 72.1654 183.36 74.4687 186.646 75.7523C189.555 76.8668 191.475 79.6589 191.476 82.7738H193.832C193.836 78.687 191.317 75.0217 187.501 73.5598Z" fill="#ABDF3A"/>
<path d="M223.285 76.8833H215.038V79.2395H223.285V76.8833Z" fill="#ABDF3A"/>
<path d="M214.614 83.046L213.106 84.8563L220.175 90.7459L221.684 88.9356L214.614 83.046Z" fill="#ABDF3A"/>
<path d="M210.326 86.3081H207.97V94.5548H210.326V86.3081Z" fill="#ABDF3A"/>
<path d="M167.627 50.9995L158.203 53.3553L158.774 55.64L168.198 53.2842L167.627 50.9995Z" fill="#ABDF3A"/>
<path d="M161.529 39.4049L160.16 41.3212L168.406 47.2111L169.775 45.2948L161.529 39.4049Z" fill="#ABDF3A"/>
<path d="M172.537 33L170.254 33.5836L172.664 43.0077L174.946 42.4241L172.537 33Z" fill="#ABDF3A"/>
<defs>
<linearGradient id="paint0_linear_165_112" x1="189" y1="440" x2="189" y2="89" gradientUnits="userSpaceOnUse">
<stop stop-color="#ABDF3A"/>
<stop offset="0.833333" stop-color="#ABDF3A" stop-opacity="0.0208333"/>
<stop offset="1" stop-color="#ABDF3A" stop-opacity="0"/>
</linearGradient>
</defs>
</svg>
