<svg width="40" height="41" viewBox="0 0 40 41" fill="none" xmlns="http://www.w3.org/2000/svg">
<path d="M18.1528 6.3137L16.7243 4.878C16.1672 4.31736 15.2614 4.31736 14.7043 4.878L10.4186 9.18511C9.86078 9.74575 9.86078 10.6545 10.4186 11.2152L11.8472 12.6509C12.1258 12.9316 12.4915 13.0715 12.8572 13.0715C13.2229 13.0715 13.5886 12.9316 13.8672 12.6509L18.1528 8.34378C18.7107 7.78314 18.7107 6.87434 18.1528 6.3137Z" fill="#ABDF3A"/>
<path d="M25.8021 15.2313C25.725 15.222 25.645 15.2242 25.5642 15.2407L24.34 15.5041L25 16.8303L25.3492 16.755L25.6978 17.3772C25.7035 17.3772 25.7092 17.3779 25.715 17.3779C25.8221 17.3779 25.9314 17.3535 26.0335 17.3025C26.3864 17.1253 26.5292 16.694 26.3528 16.3394L25.8021 15.2313Z" fill="#00325A"/>
<path d="M7.85726 20.25C3.51801 20.25 0.000183105 23.7854 0.000183105 28.1464C0.000183105 32.5073 3.51801 36.0427 7.85726 36.0427C12.1965 36.0427 15.7143 32.5073 15.7143 28.1464C15.7143 23.7854 12.1965 20.25 7.85726 20.25ZM7.85726 34.607C4.30657 34.607 1.42874 31.7148 1.42874 28.1464C1.42874 24.5779 4.30657 21.6857 7.85726 21.6857C11.4079 21.6857 14.2858 24.5779 14.2858 28.1464C14.2858 31.7148 11.4079 34.607 7.85726 34.607Z" fill="#1B201C"/>
<path d="M32.1427 20.25C27.8035 20.25 24.2856 23.7854 24.2856 28.1464C24.2856 32.5073 27.8035 36.0427 32.1427 36.0427C36.482 36.0427 39.9998 32.5073 39.9998 28.1464C39.9998 23.7854 36.482 20.25 32.1427 20.25ZM32.1427 34.607C28.592 34.607 25.7142 31.7148 25.7142 28.1464C25.7142 24.5779 28.592 21.6857 32.1427 21.6857C35.6934 21.6857 38.5712 24.5779 38.5712 28.1464C38.5712 31.7148 35.6934 34.607 32.1427 34.607Z" fill="#1B201C"/>
<path d="M7.85725 30.2998C9.04071 30.2998 10.0001 29.3356 10.0001 28.1462C10.0001 26.9569 9.04071 25.9927 7.85725 25.9927C6.6738 25.9927 5.71442 26.9569 5.71442 28.1462C5.71442 29.3356 6.6738 30.2998 7.85725 30.2998Z" fill="#ABDF3A"/>
<path d="M32.1427 30.2998C33.3262 30.2998 34.2856 29.3356 34.2856 28.1462C34.2856 26.9569 33.3262 25.9927 32.1427 25.9927C30.9593 25.9927 29.9999 26.9569 29.9999 28.1462C29.9999 29.3356 30.9593 30.2998 32.1427 30.2998Z" fill="#ABDF3A"/>
<path d="M13.7715 22.9486L12.8358 24.0682C12.5358 23.6878 12.1858 23.3505 11.8072 23.0563L12.7358 21.9583C13.1143 22.2525 13.4572 22.5898 13.7715 22.9486Z" fill="#1B201C"/>
<path d="M15.7143 28.1462C15.7143 28.6344 15.6714 29.1153 15.5857 29.5819H14.1286C14.2286 29.1225 14.2857 28.6416 14.2857 28.1462H15.7143Z" fill="#1B201C"/>
<path d="M29.3142 22.3458C28.8785 22.5611 28.4713 22.8194 28.107 23.1209L27.3999 21.8506C27.7785 21.5635 28.1785 21.3051 28.607 21.0898L29.3142 22.3458Z" fill="#1B201C"/>
<path d="M10.0001 28.1457C10.0001 28.6984 9.79296 29.2007 9.45011 29.5811H7.85727C7.5787 29.5811 7.3287 29.416 7.20727 29.1648C7.09299 28.9137 7.1287 28.6122 7.31442 28.3969L9.04297 26.3516C9.45725 26.6315 9.77154 27.0477 9.90725 27.5429L9.40011 28.1457H10.0001Z" fill="#799E29"/>
<path d="M31.4249 26.1169C30.9527 26.2856 30.557 26.6157 30.3035 27.0413L31.5206 29.2151C31.652 29.4491 31.8942 29.5811 32.1442 29.5811C32.2627 29.5811 32.3827 29.5517 32.4934 29.4893C32.837 29.2948 32.9592 28.8577 32.7656 28.5118L31.4249 26.1169Z" fill="#799E29"/>
<path d="M32.7656 27.7943L26.3371 16.3087C26.1835 16.0345 25.87 15.8945 25.565 15.9584L15.5651 18.112C15.4108 18.145 15.2715 18.229 15.1693 18.3503L7.31227 27.6823C7.13227 27.8956 7.09227 28.1942 7.20941 28.4483C7.32656 28.7017 7.57941 28.8639 7.85727 28.8639H20C20.2307 28.8639 20.435 28.7541 20.5657 28.584L26.9207 20.2813L31.5199 28.4985C31.6513 28.7326 31.8935 28.8646 32.1435 28.8646C32.262 28.8646 32.382 28.8352 32.4928 28.7728C32.837 28.5775 32.9592 28.1396 32.7656 27.7943ZM19.6486 27.4282H9.39725L12.7497 23.4463L16.1022 19.4644L25.3492 17.4731L26.1592 18.921L19.6486 27.4282Z" fill="#ABDF3A"/>
<path d="M20 27.4285H16.5186C16.46 27.6582 16.4286 27.8987 16.4286 28.1463C16.4286 28.394 16.46 28.6345 16.5186 28.8642H20C20.3943 28.8642 20.7143 28.5426 20.7143 28.1463C20.7143 27.7501 20.3943 27.4285 20 27.4285Z" fill="#799E29"/>
<path d="M16.1758 18.2664C15.8736 18.0094 15.4236 18.0475 15.1693 18.3503L13.9543 19.7929L14.9679 20.8112L16.2593 19.2776C16.5143 18.9747 16.4765 18.5219 16.1758 18.2664Z" fill="#1B201C"/>
<path d="M0.714462 33.8892L3.57158 36.7606H36.4284L39.2855 39.632H39.9998V40.3498H0.000183105V33.8892H0.714462Z" fill="#ABDF3A"/>
<path d="M39.2855 40.3498C39.1027 40.3498 38.9198 40.2795 38.7805 40.1395L36.1327 37.4784H3.57158C3.38229 37.4784 3.20015 37.4031 3.06658 37.2681L0.209462 34.3967C-0.0698208 34.116 -0.0698208 33.6623 0.209462 33.3817C0.488746 33.101 0.94017 33.101 1.21945 33.3817L3.86729 36.0427H36.4284C36.6177 36.0427 36.7999 36.1181 36.9334 36.2531L39.7905 39.1245C40.0698 39.4051 40.0698 39.8588 39.7905 40.1395C39.6513 40.2795 39.4684 40.3498 39.2855 40.3498Z" fill="#799E29"/>
<path d="M17.1429 27.4285H21.4285V20.25C21.4285 19.8695 21.2778 19.5042 21.01 19.235L16.3064 14.5072L16.7243 14.0865C17.2821 13.5259 17.2821 12.6171 16.7243 12.0565L14.5815 9.9029C14.0243 9.34226 13.1186 9.34226 12.5615 9.9029L10.7144 11.7593C10.1751 12.3012 9.87793 13.0227 9.87793 13.7893C9.87793 14.556 10.1751 15.2775 10.7144 15.8194L17.1429 22.2801V27.4285Z" fill="#1B201C"/>
<path d="M20.7143 7.32865H17.1429V2.3037C17.1429 1.11422 18.1022 0.150146 19.2857 0.150146H20.7143C21.8978 0.150146 22.8571 1.11422 22.8571 2.3037V5.1751C22.8571 6.36458 21.8978 7.32865 20.7143 7.32865Z" fill="white"/>
<path d="M20.7143 0.150146H19.2857C18.1022 0.150146 17.1429 1.11422 17.1429 2.3037V5.89295C17.1429 6.28777 17.4643 6.6108 17.8572 6.6108H18.5714C18.9643 6.6108 19.2857 6.28777 19.2857 5.89295V3.02155H22.8571C22.8571 3.02155 22.8571 2.69995 22.8571 2.3037C22.8571 1.11422 21.8978 0.150146 20.7143 0.150146Z" fill="#0A5078"/>
<path d="M20 3.02148H20.7143V7.32859H20V3.02148Z" fill="#0A5078"/>
<path d="M19.2858 3.02075H22.8572V3.73914H19.2858V3.02075Z" fill="white"/>
<path d="M20 3.02075H20.7143V3.73914H20V3.02075Z" fill="#00325A"/>
<path d="M17.1429 3.02075H19.2857V3.73914H17.1429V3.02075Z" fill="#00325A"/>
<path d="M23.5714 1.58549H22.735C22.4407 0.749403 21.6471 0.150146 20.7143 0.150146H18.5714C17.3879 0.150146 16.4286 1.11398 16.4286 2.30316C16.4286 2.69932 16.7486 3.02084 17.1429 3.02084H23.5714C23.9657 3.02084 24.2857 2.69932 24.2857 2.30316C24.2857 1.90701 23.9657 1.58549 23.5714 1.58549Z" fill="#ABDF3A"/>
<path d="M18.6578 6.82108C17.8229 5.98119 16.4629 5.98119 15.6279 6.82108L10.8365 11.6357L13.485 14.2968C13.9022 14.7167 14.4515 14.9263 15 14.9263C15.5486 14.9263 16.0979 14.7167 16.515 14.2968L21.3064 9.48215L18.6578 6.82108Z" fill="#2E3A57"/>
<path d="M17.1429 10.199C18.4665 10.199 19.5693 9.28971 19.8936 8.06249L18.6579 6.82092C17.8229 5.98124 16.4629 5.98124 15.6279 6.82092L14.3922 8.06249C14.7165 9.28971 15.8193 10.199 17.1429 10.199Z" fill="#ABDF3A"/>
<path d="M25.7142 17.3785C25.3485 17.3785 24.9828 17.2385 24.7042 16.9578L16.1329 8.34363C15.575 7.78299 15.575 6.87419 16.1329 6.31355C16.69 5.75291 17.5957 5.75291 18.1528 6.31355L26.7242 14.9278C27.2821 15.4884 27.2821 16.3972 26.7242 16.9578C26.4456 17.2385 26.0799 17.3785 25.7142 17.3785Z" fill="white"/>
<path d="M25.2564 13.4528L18.1579 6.31875C17.8986 6.05602 17.5401 5.89307 17.1429 5.89307C16.3536 5.89307 15.7144 6.53554 15.7144 7.32877C15.7144 7.72717 15.8758 8.08754 16.1365 8.3474L23.2364 15.4828L25.2564 13.4528Z" fill="#2E3A57"/>
<path d="M22.1428 30.2992H17.8572C17.4629 30.2992 17.1429 29.9776 17.1429 29.5815V27.4285H21.4286C22.2178 27.4285 22.8571 28.0708 22.8571 28.8638V29.5815C22.8571 29.9776 22.5371 30.2992 22.1428 30.2992Z" fill="#ABDF3A"/>
<path d="M20.7143 31.7355H17.8572C17.4629 31.7355 17.1429 31.4139 17.1429 31.0177C17.1429 30.6214 17.4629 30.2998 17.8572 30.2998H20.7143C21.1086 30.2998 21.4286 30.6214 21.4286 31.0177C21.4286 31.4139 21.1086 31.7355 20.7143 31.7355Z" fill="#1B201C"/>
</svg>
