<svg width="378" height="440" viewBox="0 0 378 440" fill="none" xmlns="http://www.w3.org/2000/svg">
<path d="M3 440V89H375V440" stroke="url(#paint0_linear_165_111)" stroke-width="6"/>
<path d="M186.5 17L128 51V116L186.5 149.5L241.5 116V51L186.5 17Z" stroke="#ABDF3A" stroke-width="3"/>
<path d="M194.5 2L136 36V101L194.5 134.5L249.5 101V36L194.5 2Z" fill="#1B201C" stroke="#ABDF3A" stroke-width="3"/>
<path d="M229.293 93.3749H225.579C225.865 92.8173 226.027 92.1865 226.027 91.5179L226.026 61.3116C226.026 60.6966 225.528 60.1983 224.913 60.1983C224.298 60.1983 223.8 60.6968 223.8 61.3116L223.801 91.5179C223.801 92.5411 222.968 93.3734 221.945 93.3734L164.056 93.3749C163.033 93.3749 162.201 92.5426 162.201 91.5194L162.199 52.9271C162.199 51.9039 163.032 51.0716 164.055 51.0716L193.595 51.0703C193.212 51.746 193.155 52.5672 193.456 53.2969L189.51 53.297C189.508 53.297 189.505 53.2967 189.503 53.2967H187.488C187.485 53.2967 187.482 53.297 187.479 53.297L165.539 53.2982C164.924 53.2982 164.426 53.7967 164.426 54.4115L164.427 77.9228C164.427 78.5378 164.925 79.0361 165.54 79.0361C166.155 79.0361 166.653 78.5376 166.653 77.9228L166.652 55.5248L184.935 55.5239C184.783 56.1305 184.613 56.8727 184.533 57.4448C184.52 57.5391 184.46 57.6249 184.374 57.6747L182.512 58.7471C182.425 58.7972 182.321 58.8061 182.231 58.7701C181.599 58.5152 180.696 58.2477 180.049 58.0683C178.927 57.7571 177.736 58.243 177.153 59.2497L176.147 60.9882C175.563 61.9978 175.737 63.2735 176.572 64.0904C177.05 64.5582 177.732 65.2041 178.27 65.6227C178.344 65.6806 178.389 65.7744 178.389 65.8737V68.0156C178.389 68.1149 178.344 68.2091 178.27 68.267C177.732 68.6854 177.05 69.3312 176.572 69.7991C175.737 70.616 175.563 71.8918 176.147 72.9013L177.153 74.6398C177.736 75.6465 178.926 76.133 180.049 75.8211C180.696 75.6418 181.599 75.3743 182.232 75.1193C182.32 75.0836 182.425 75.0923 182.512 75.1423L184.374 76.2146C184.46 76.2645 184.52 76.3504 184.533 76.4445C184.628 77.1183 184.847 78.0297 185.014 78.6752C185.306 79.8041 186.323 80.5926 187.488 80.5926H189.503C190.668 80.5926 191.685 79.8041 191.977 78.6754C192.144 78.0295 192.363 77.1183 192.458 76.4445C192.471 76.3504 192.531 76.2645 192.617 76.2146L194.479 75.1423C194.566 75.0923 194.671 75.0835 194.759 75.1194C195.392 75.3743 196.295 75.6418 196.942 75.8212C198.064 76.1319 199.255 75.6465 199.838 74.6398L200.844 72.9013C201.428 71.8916 201.253 70.616 200.419 69.7991C199.941 69.3312 199.259 68.6854 198.721 68.2671C198.647 68.2089 198.602 68.1149 198.602 68.0156V65.8737C198.602 65.7744 198.647 65.6804 198.721 65.6225C199.258 65.2041 199.941 64.5582 200.419 64.0904C201.253 63.2735 201.428 61.9977 200.844 60.9882L199.837 59.2497C199.255 58.243 198.064 57.7568 196.942 58.0684C196.295 58.2477 195.391 58.5152 194.759 58.7702C194.671 58.8055 194.566 58.7971 194.479 58.7472L192.617 57.6746C192.531 57.6249 192.471 57.5391 192.458 57.445C192.377 56.8727 192.207 56.1303 192.055 55.5236L194.726 55.5234C195.341 56.4068 196.454 56.8171 197.507 56.5245C198.154 56.345 199.058 56.0776 199.69 55.8227C199.778 55.7872 199.883 55.7957 199.97 55.8457L201.831 56.918C201.918 56.9679 201.978 57.0538 201.991 57.1479C202.086 57.8217 202.305 58.7331 202.472 59.3787C202.763 60.5075 203.781 61.296 204.946 61.296H206.961C208.126 61.296 209.143 60.5075 209.435 59.3788C209.602 58.733 209.821 57.8217 209.916 57.1479C209.929 57.0538 209.989 56.9679 210.075 56.918L211.937 55.8457C212.024 55.7957 212.129 55.7869 212.217 55.8228C212.85 56.0777 213.753 56.3452 214.4 56.5246C215.453 56.8163 216.566 56.4068 217.181 55.5234H219.346L219.347 88.9204L166.654 88.9217L166.654 82.7279C166.654 82.1129 166.155 81.6146 165.54 81.6146C164.925 81.6146 164.427 82.1131 164.427 82.7279L164.427 90.035C164.427 90.65 164.926 91.1483 165.541 91.1483L220.461 91.1468C220.756 91.1468 221.039 91.0295 221.248 90.8207C221.457 90.612 221.574 90.3289 221.574 90.0335L221.573 54.41C221.573 53.795 221.074 53.2967 220.459 53.2967H218.451C218.752 52.567 218.695 51.7459 218.312 51.0702H221.944C222.967 51.0702 223.799 51.9025 223.799 52.9256L223.799 56.5892C223.799 57.2042 224.298 57.7025 224.913 57.7025C225.528 57.7025 226.026 57.204 226.026 56.5892L226.026 52.9256C226.026 50.6749 224.195 48.8436 221.944 48.8436H216.086C216.07 48.8046 216.06 48.7626 216.06 48.7188V46.5768C216.06 46.4775 216.105 46.3837 216.18 46.3257C216.717 45.9069 217.399 45.2612 217.877 44.7935C218.712 43.9766 218.886 42.7008 218.302 41.6913L217.296 39.9528C216.713 38.9461 215.522 38.4597 214.4 38.7715C213.753 38.9511 212.848 39.2186 212.217 39.4733C212.129 39.5087 212.024 39.5002 211.937 39.4503L210.075 38.3777C209.989 38.328 209.929 38.2422 209.916 38.1481C209.821 37.4737 209.602 36.5626 209.435 35.9174C209.143 34.7885 208.126 34 206.961 34H204.946C203.781 34 202.764 34.7885 202.472 35.9172C202.305 36.5628 202.086 37.4737 201.991 38.1479C201.978 38.2422 201.918 38.328 201.832 38.3779L199.97 39.4502C199.883 39.5005 199.778 39.509 199.69 39.4733C199.059 39.2189 198.155 38.9511 197.507 38.7714C196.385 38.4604 195.194 38.9461 194.611 39.9528L193.605 41.6913C193.021 42.701 193.196 43.9766 194.03 44.7935C194.508 45.2611 195.19 45.9065 195.728 46.3258C195.802 46.3837 195.847 46.4775 195.847 46.5768V48.7188C195.847 48.7624 195.837 48.8046 195.821 48.8436L164.055 48.8451C161.804 48.8451 159.973 50.6764 159.973 52.9271L159.974 91.5194C159.974 92.1874 160.137 92.8178 160.422 93.3749H156.707C155.766 93.3749 155 94.1406 155 95.0819V98.0506C155 100.793 157.231 103.023 159.973 103.023H211.98C212.595 103.023 213.093 102.525 213.093 101.91C213.093 101.295 212.595 100.797 211.98 100.797H159.973C158.458 100.797 157.227 99.5648 157.227 98.0506V95.6014H185.059V96.2694C185.059 97.8654 186.357 99.1639 187.953 99.1639H198.047C199.643 99.1639 200.941 97.8654 200.941 96.2694V95.6014H228.773V98.0506C228.773 99.5648 227.542 100.797 226.027 100.797H216.785C216.17 100.797 215.672 101.295 215.672 101.91C215.672 102.525 216.17 103.023 216.785 103.023H226.027C228.769 103.023 231 100.793 231 98.0506V95.0819C231 94.1406 230.234 93.3749 229.293 93.3749V93.3749ZM189.822 55.7715C190.037 56.6057 190.191 57.3103 190.253 57.7558C190.363 58.5354 190.82 59.209 191.506 59.604L193.368 60.6766C194.053 61.0708 194.863 61.1286 195.592 60.835C196.01 60.6664 196.701 60.4458 197.537 60.2138C197.682 60.1732 197.835 60.2354 197.91 60.3649L198.917 62.1034C198.991 62.2318 198.968 62.3946 198.861 62.4993C198.244 63.104 197.708 63.5895 197.353 63.8661C196.732 64.3498 196.376 65.0815 196.376 65.8737V68.0156C196.376 68.8077 196.732 69.5395 197.353 70.0233C197.708 70.2999 198.244 70.7855 198.861 71.3902C198.968 71.4949 198.991 71.6577 198.917 71.7861L197.91 73.5246C197.835 73.6539 197.681 73.7155 197.537 73.6759C196.701 73.4439 196.01 73.2231 195.592 73.0546C194.863 72.7607 194.053 72.8185 193.368 73.213L191.506 74.2853C190.82 74.6806 190.363 75.3544 190.253 76.1337V76.1338C190.19 76.5792 190.037 77.2838 189.821 78.1181C189.784 78.2641 189.653 78.3662 189.503 78.3662H187.488C187.338 78.3662 187.207 78.2641 187.169 78.118C186.954 77.2838 186.8 76.5792 186.737 76.1337C186.627 75.3544 186.171 74.6806 185.485 74.2853L183.623 73.213C183.227 72.9847 182.788 72.8693 182.348 72.8693C182.027 72.8693 181.706 72.9307 181.399 73.0545C180.981 73.2231 180.29 73.4437 179.454 73.6757C179.308 73.7164 179.155 73.6539 179.08 73.5246L178.074 71.7861C178 71.6577 178.022 71.4949 178.129 71.3902C178.747 70.7855 179.283 70.2999 179.638 70.0231C180.259 69.5394 180.615 68.8077 180.615 68.0156V65.8737C180.615 65.0815 180.259 64.3497 179.638 63.8662C179.283 63.5895 178.747 63.104 178.129 62.4993C178.022 62.3946 178 62.2318 178.074 62.1034L179.08 60.3649C179.155 60.2356 179.309 60.1738 179.453 60.2136C180.29 60.4456 180.981 60.6664 181.399 60.8348C182.127 61.1286 182.937 61.071 183.623 60.6764L185.484 59.6041C186.171 59.209 186.627 58.5354 186.737 57.7556C186.8 57.3103 186.954 56.6057 187.169 55.7713C187.207 55.6269 187.335 55.5258 187.483 55.5237L189.506 55.5236C189.655 55.5252 189.784 55.6265 189.822 55.7715V55.7715ZM195.588 43.2024C195.481 43.0977 195.458 42.9349 195.532 42.8065L196.538 41.068C196.613 40.9387 196.767 40.877 196.912 40.9167C197.749 41.149 198.44 41.3698 198.857 41.538C199.585 41.8319 200.396 41.7741 201.081 41.3796L202.943 40.3073C203.629 39.9121 204.086 39.2385 204.196 38.4588C204.259 38.0132 204.412 37.3085 204.628 36.4745C204.665 36.3285 204.796 36.2264 204.946 36.2264H206.961C207.111 36.2264 207.242 36.3285 207.28 36.4746C207.495 37.3085 207.649 38.0132 207.711 38.4589C207.821 39.2385 208.278 39.9121 208.964 40.3071L210.826 41.3797C211.511 41.7741 212.322 41.832 213.05 41.538C213.467 41.3696 214.158 41.1492 214.995 40.9169C215.14 40.8764 215.294 40.9386 215.369 41.068L216.375 42.8065C216.449 42.9349 216.427 43.0977 216.32 43.2024C215.702 43.807 215.166 44.2927 214.811 44.569C214.19 45.0528 213.834 45.7845 213.834 46.5768V48.7188C213.834 49.511 214.19 50.2428 214.811 50.7264C215.166 51.0031 215.702 51.4888 216.32 52.0933C216.427 52.198 216.449 52.3608 216.375 52.4892L215.369 54.2277C215.294 54.357 215.14 54.4188 214.995 54.379C214.159 54.147 213.468 53.9263 213.05 53.7578C212.322 53.464 211.511 53.5215 210.826 53.9162L208.964 54.9885C208.278 55.3838 207.821 56.0575 207.711 56.8368V56.837C207.649 57.2823 207.495 57.9869 207.28 58.8213C207.242 58.9672 207.111 59.0693 206.961 59.0693H204.946C204.796 59.0693 204.665 58.9672 204.628 58.8211C204.412 57.9869 204.259 57.2823 204.196 56.8368C204.086 56.0575 203.629 55.3838 202.943 54.9885L201.081 53.9162C200.685 53.6879 200.247 53.5724 199.807 53.5724C199.486 53.5724 199.164 53.6338 198.857 53.7576C198.439 53.9261 197.749 54.1467 196.912 54.3788C196.767 54.4194 196.613 54.3572 196.538 54.2277L196.341 53.8871C196.335 53.8753 196.328 53.8642 196.322 53.8529L195.532 52.4892C195.458 52.3608 195.481 52.198 195.588 52.0933C196.205 51.4891 196.741 51.0035 197.096 50.7262C197.717 50.2425 198.073 49.5108 198.073 48.7188V46.5768C198.073 45.7846 197.717 45.0528 197.096 44.5693C196.741 44.2922 196.205 43.8067 195.588 43.2024V43.2024ZM198.715 96.2694C198.715 96.6377 198.415 96.9374 198.047 96.9374H187.953C187.585 96.9374 187.285 96.6377 187.285 96.2694V95.6014H198.715V96.2694Z" fill="#ABDF3A"/>
<path d="M205.954 53.7103C209.303 53.7103 212.028 50.9907 212.028 47.6478C212.028 44.305 209.303 41.5854 205.954 41.5854C202.604 41.5854 199.879 44.305 199.879 47.6478C199.879 50.9907 202.604 53.7103 205.954 53.7103ZM204.219 51.0702H207.688C207.167 51.3339 206.578 51.4837 205.954 51.4837C205.33 51.4837 204.741 51.3339 204.219 51.0702ZM205.954 43.8122C208.076 43.8122 209.802 45.5328 209.802 47.6479C209.802 48.0655 209.734 48.4672 209.609 48.8437H202.298C202.174 48.4672 202.106 48.0655 202.106 47.6479C202.106 45.5327 203.832 43.8122 205.954 43.8122V43.8122Z" fill="#ABDF3A"/>
<path d="M182.421 66.9447C182.421 70.2876 185.146 73.0071 188.495 73.0071C191.845 73.0071 194.57 70.2876 194.57 66.9447C194.57 63.6018 191.845 60.8823 188.495 60.8823C185.146 60.8823 182.421 63.602 182.421 66.9447V66.9447ZM192.344 66.9447C192.344 69.0597 190.617 70.7806 188.495 70.7806C186.374 70.7806 184.647 69.0597 184.647 66.9447C184.647 64.8296 186.374 63.1089 188.495 63.1089C190.617 63.1089 192.344 64.8296 192.344 66.9447V66.9447Z" fill="#ABDF3A"/>
<defs>
<linearGradient id="paint0_linear_165_111" x1="189" y1="89" x2="189" y2="440" gradientUnits="userSpaceOnUse">
<stop stop-color="#ABDF3A"/>
<stop offset="0.833333" stop-color="#ABDF3A" stop-opacity="0.0208333"/>
<stop offset="1" stop-color="#ABDF3A" stop-opacity="0"/>
</linearGradient>
</defs>
</svg>
