<svg width="822" height="466" viewBox="0 0 822 466" fill="none" xmlns="http://www.w3.org/2000/svg">
<path d="M278.657 331.357C278.05 331.589 276.836 332.686 276.008 333.727C274.683 335.345 274.517 335.98 274.738 338.234C275.125 341.99 277.443 344.07 281.252 344.07C283.736 344.07 284.288 343.839 285.944 342.105C287.49 340.487 287.821 339.736 287.821 337.598C287.821 334.593 286.662 332.686 284.178 331.589C282.135 330.664 280.369 330.606 278.657 331.357Z" fill="#ABDF3A"/>
<path d="M297.224 365.805V396.99L303.279 396.811L309.273 396.631L309.582 387.293L309.891 377.956L317.615 387.293L325.339 396.631L332.939 396.811C337.635 396.93 340.478 396.751 340.478 396.392C340.478 396.032 335.843 390.765 330.22 384.66L319.963 373.586L330.097 362.453C335.596 356.348 340.292 351.14 340.354 350.781C340.478 350.482 337.45 350.243 332.877 350.243H325.215L317.553 359.64L309.891 368.977L309.582 351.978L309.273 334.979L303.279 334.8L297.224 334.62V365.805Z" fill="#ABDF3A"/>
<path d="M552.985 365.591V396.622L558.754 396.443L564.464 396.265L564.641 393.406L564.817 390.547L566.995 392.453C571.94 396.86 578.474 398.111 585.421 395.967C589.129 394.835 590.189 394.18 593.309 391.023C598.077 386.199 599.549 382.387 599.961 374.406C600.255 367.497 598.901 362.137 595.722 357.729C588.776 348.259 574.766 346.711 566.701 354.454L564.758 356.3V345.46V334.62H558.872H552.985V365.591ZM581.889 361.184C584.302 362.375 587.01 365.889 587.775 368.688C588.776 372.441 588.129 377.622 586.304 380.779C581.948 388.224 571.881 388.403 566.878 381.196C565.406 379.052 565.053 377.92 564.876 374.466C564.7 371.547 564.935 369.522 565.583 367.676C566.76 364.698 570.41 361.005 572.823 360.469C573.765 360.29 574.766 360.052 575.06 359.933C576.061 359.576 580.299 360.35 581.889 361.184Z" fill="#ABDF3A"/>
<path d="M222 367.695V396.99H234.487C251.547 396.99 256.296 396.035 260.869 391.68C267.904 385.057 266.204 372.468 257.703 368.172L254.889 366.681L256.589 365.965C259.638 364.712 262.862 360.535 263.624 356.896C265.148 349.975 262.1 343.889 255.534 340.727L251.606 338.818L236.832 338.639L222 338.4V367.695ZM247.326 348.662C250.375 349.557 251.899 351.705 251.899 355.285C251.899 357.672 251.606 358.567 250.199 360.118L248.499 362.087L241.112 362.266L233.725 362.504V355.285V348.066H239.47C242.578 348.066 246.154 348.364 247.326 348.662ZM250.023 373.125C252.016 374.377 253.658 377.361 253.658 379.747C253.658 382.014 251.84 384.938 249.847 385.893C248.44 386.609 246.036 386.847 240.819 386.847H233.725V379.389V371.931H240.936C247.092 371.931 248.382 372.11 250.023 373.125Z" fill="#ABDF3A"/>
<path d="M413.846 339.118C413.965 339.537 417.466 352.521 421.559 368.017C425.653 383.454 429.272 396.378 429.51 396.617C429.747 396.856 432.892 396.976 436.451 396.916L442.918 396.737L448.377 376.753C451.343 365.803 453.954 356.709 454.073 356.589C454.191 356.47 456.683 365.444 459.59 376.573L464.871 396.737L471.575 396.916C478.042 397.096 478.22 397.036 478.813 395.72C479.11 394.942 482.729 382.138 486.823 367.18C490.976 352.281 494.477 339.657 494.655 339.178C494.892 338.52 493.883 338.4 488.544 338.52L482.077 338.699L477.212 359.94C474.542 371.607 472.228 381.599 472.109 382.078C471.99 382.556 469.736 373.941 467.007 362.931C464.337 351.922 461.845 341.87 461.548 340.614L460.955 338.4H454.488H448.021L447.487 340.315C447.19 341.392 444.58 351.384 441.672 362.572C438.825 373.701 436.333 382.437 436.155 382.018C436.036 381.539 433.722 371.607 431.112 359.94L426.306 338.699L419.957 338.52C414.974 338.4 413.609 338.52 413.846 339.118Z" fill="#ABDF3A"/>
<path d="M359.303 350.787C352.72 352.932 348.035 357.223 345.662 363.301C343.764 368.188 343.764 378.319 345.662 383.146C348.035 389.105 352.246 393.277 358.117 395.66C362.388 397.329 371.284 397.448 375.376 395.899C380.773 393.873 385.34 389.403 387.594 384.04L388.484 381.835H382.078H375.673L374.665 383.563C372.114 387.913 363.692 388.509 359.481 384.636C358.058 383.325 355.923 379.213 355.864 377.842C355.864 377.246 359.778 377.067 372.648 376.948L389.373 376.769L389.314 371.704C389.195 362.348 384.806 355.197 377.096 351.74C372.174 349.535 364.345 349.059 359.303 350.787ZM372.945 361.096C375.258 362.527 377.215 365.447 377.215 367.354C377.215 368.724 377.215 368.724 366.598 368.724H355.923L356.457 366.996C357.465 363.48 359.956 360.858 363.514 359.726C365.827 359.011 370.691 359.726 372.945 361.096Z" fill="#ABDF3A"/>
<path d="M513.248 350.891C503.668 354.047 497.696 363.874 498.524 375.309C498.997 382.039 500.771 386.208 505.088 390.556C509.877 395.38 513.78 396.928 521.112 396.988C527.498 397.048 531.401 395.856 535.481 392.581C538.26 390.377 541.572 385.851 542.399 383.171C542.754 381.86 542.754 381.86 536.545 381.86C530.396 381.86 530.337 381.86 529.154 383.588C526.02 387.995 517.978 388.531 513.839 384.66C512.243 383.171 511.119 381.146 510.528 378.764L510.173 377.096L526.848 376.977L543.582 376.798L543.523 371.378C543.523 366.673 543.286 365.542 541.69 362.147C539.443 357.323 536.309 354.166 531.46 351.844C526.375 349.461 518.924 349.045 513.248 350.891ZM527.025 360.956C529.213 362.207 531.46 365.482 531.46 367.329V368.758H521.112C509.463 368.758 509.641 368.817 512.065 364.529C514.194 360.658 517.505 359.05 522.295 359.586C523.951 359.765 526.02 360.36 527.025 360.956Z" fill="#ABDF3A"/>
<path d="M274.769 373.153L274.939 396.627L280.468 396.809L285.94 396.99V373.335V349.74H280.298H274.657L274.769 373.153Z" fill="#ABDF3A"/>
<path d="M339.483 1.83875C337.013 3.48211 336.896 4.42117 336.896 17.6855V31.6541H342.893H348.891L348.538 17.4507C348.068 5.12547 347.833 3.12996 345.834 1.60398C342.893 -0.508915 342.658 -0.391533 339.483 1.83875Z" fill="#ABDF3A"/>
<path d="M480.489 1.83875C478.254 3.48212 478.019 4.65595 478.019 17.6855V31.6541H483.311H488.721L488.368 16.8638C488.015 2.8952 487.898 1.95614 485.545 1.01707C483.899 0.430157 482.135 0.782305 480.489 1.83875Z" fill="#ABDF3A"/>
<path d="M262.924 19.4462C261.512 21.207 260.454 23.2025 260.454 24.0242C260.454 24.8458 261.512 26.8413 262.924 28.6021L265.276 31.6541H295.852H326.311V24.0242V16.3943H295.852H265.276L262.924 19.4462Z" fill="#ABDF3A"/>
<path d="M359.24 24.376V32.2407L367.237 33.7667C371.589 34.5884 378.527 36.8187 382.643 38.6968C386.642 40.6923 390.523 41.8661 391.111 41.514C391.699 41.1618 392.169 37.5229 392.169 33.4145V25.7846L387.465 23.437C382.878 21.0893 365.473 16.394 361.357 16.394C359.593 16.394 359.24 17.5678 359.24 24.376Z" fill="#ABDF3A"/>
<path d="M456.262 17.685C453.675 18.2719 447.677 20.15 443.091 21.7934L434.506 24.8453V33.5317C434.506 38.3444 434.976 42.218 435.564 42.218C436.152 42.218 440.033 40.5747 444.385 38.5791C448.618 36.5836 455.557 34.3534 459.791 33.6491L467.552 32.3578L467.199 24.6106C466.847 17.4502 466.729 16.9807 463.907 16.7459C462.26 16.6285 458.85 17.098 456.262 17.685Z" fill="#ABDF3A"/>
<path d="M500.363 24.0242V31.6541H530.823C561.046 31.6541 561.399 31.6541 563.163 29.0716C565.751 25.4327 565.515 21.5591 562.693 18.7419C560.458 16.5116 558.812 16.3943 530.352 16.3943H500.363V24.0242Z" fill="#ABDF3A"/>
<path d="M404.047 22.9676L401.342 24.9631L401.812 84.5937C402.048 131.547 402.518 144.576 403.694 145.75C405.811 147.863 419.453 147.746 421.922 145.633C423.687 144.224 423.922 138.473 423.922 84.4763C423.922 28.3672 423.804 24.8457 421.805 23.085C418.865 20.3852 407.81 20.3852 404.047 22.9676Z" fill="#ABDF3A"/>
<path d="M315.374 42.923C314.904 43.3925 314.551 45.8575 314.551 48.3226V52.7832H292.442C280.329 52.7832 268.686 53.2527 266.569 53.8396C261.983 55.2482 251.516 63.6998 250.458 66.8691C249.399 70.1559 251.869 73.9121 255.044 73.9121C256.573 73.9121 260.219 71.6818 263.394 68.8646L269.156 63.9345L307.377 63.3476L345.598 62.7607L347.127 59.8261C348.068 58.1828 348.538 53.8396 348.421 49.8486L348.068 42.8056L332.074 42.4534C323.371 42.3361 315.845 42.5708 315.374 42.923Z" fill="#ABDF3A"/>
<path d="M478.019 50.5526C478.019 64.4038 475.079 63.3474 514.829 63.3474C533.763 63.4648 551.403 63.9343 554.108 64.4038C557.283 64.9908 560.811 66.9863 563.869 69.6861C568.808 74.0292 571.748 74.9683 574.218 72.5033C576.805 69.9208 575.629 66.1646 570.69 61.3519C562.458 53.3698 560.106 52.7829 533.88 52.7829H510.948V47.5007V42.2184H494.483H478.019V50.5526Z" fill="#ABDF3A"/>
<path d="M382.526 110.3C364.18 117.93 351.831 131.077 345.834 149.272C343.481 156.549 342.893 160.658 342.541 176.035L342.188 194.229L352.89 194.581L363.592 194.934L364.297 177.561C364.768 166.292 365.708 158.31 366.884 154.906C369.825 146.572 376.293 138.707 384.642 133.425L392.169 128.612L392.051 119.808C391.934 106.309 391.934 106.309 382.526 110.3Z" fill="#ABDF3A"/>
<path d="M434.506 118.752V129.903L439.21 132.016C445.208 134.716 455.086 145.163 458.379 152.206C460.614 157.136 460.967 160.306 461.319 176.27L461.79 194.816H472.844H483.899V178.383C483.899 159.132 482.723 152.558 477.196 140.937C470.14 126.03 452.264 111.122 438.387 108.422L434.506 107.601V118.752Z" fill="#ABDF3A"/>
<path d="M406.869 179.557C405.576 180.026 403.341 181.67 401.812 183.078L399.107 185.661L403.459 189.417C406.869 192.351 407.575 193.643 406.987 195.638C405.928 198.808 402.4 200.099 399.343 198.455C397.579 197.516 396.991 197.634 396.403 199.042C394.874 203.033 395.932 205.029 400.989 208.668C403.929 210.781 406.634 213.246 406.987 214.185C408.163 217.237 405.105 219.702 400.754 219.232C398.284 218.88 396.755 219.35 396.285 220.406C394.874 224.28 395.932 226.393 400.989 229.679C403.929 231.44 406.634 233.905 406.987 235.079C408.045 238.483 405.223 240.948 400.871 240.244C398.167 239.774 396.873 240.126 396.403 241.418C394.991 244.939 395.814 246.582 400.989 250.221C403.929 252.217 406.516 254.917 406.987 256.09C408.045 259.612 405.223 262.077 400.871 261.373C398.167 260.903 396.873 261.255 396.403 262.547C394.991 266.068 395.814 267.594 400.871 271.115C406.634 274.989 408.398 278.511 406.164 281.21C404.988 282.619 403.459 282.854 400.048 282.384L395.579 281.68L395.932 287.784L396.285 294.005L413.102 294.357L429.802 294.709V287.666V280.741L426.391 282.032C423.686 282.971 422.51 282.971 421.099 281.797C417.453 278.745 419.923 273.698 427.214 270.059C429.096 269.003 429.802 267.594 429.802 264.777C429.802 261.021 429.684 260.903 424.862 261.021C420.158 261.138 419.805 260.903 419.453 257.969C419.1 255.269 420.041 254.095 424.392 250.926C428.978 247.756 429.802 246.582 429.802 243.296C429.802 239.657 429.566 239.539 426.274 240.126C422.275 240.948 419.217 239.07 419.217 235.783C419.217 234.609 421.452 232.144 424.51 230.031C428.978 226.979 429.802 225.806 429.802 222.519C429.802 218.763 429.684 218.645 424.862 218.763C420.276 218.88 419.805 218.645 419.453 215.711C419.1 213.128 420.041 211.954 424.392 208.902C429.096 205.733 429.802 204.677 429.802 201.273C429.802 196.929 428.861 196.225 426.509 198.573C425.45 199.629 424.392 199.629 422.158 198.573C418.041 196.695 418.394 192.704 422.981 188.947C426.509 186.013 426.626 185.543 425.098 183.665C421.452 179.205 412.396 177.209 406.869 179.557Z" fill="#ABDF3A"/>
<path d="M342.423 205.028C341.953 205.381 341.6 224.631 341.6 247.756V289.779L344.657 292.127C348.185 294.826 354.418 295.296 360.299 293.3L363.944 292.009V248.108V204.207H353.595C347.833 204.207 342.776 204.559 342.423 205.028Z" fill="#ABDF3A"/>
<path d="M462.025 205.851C461.672 206.79 461.555 226.275 461.79 249.282C462.025 281.211 462.495 291.306 463.671 292.479C465.671 294.475 479.43 294.475 481.9 292.362C483.664 290.953 483.899 286.375 483.899 247.522V204.207H473.315C465.2 204.207 462.495 204.559 462.025 205.851Z" fill="#ABDF3A"/>
<path d="M317.138 269.003C315.374 270.763 315.374 274.989 317.138 276.75C317.961 277.572 321.607 278.158 325.37 278.158H332.191V272.876V267.594H325.37C321.607 267.594 317.961 268.181 317.138 269.003Z" fill="#ABDF3A"/>
<path d="M374.529 272.876V278.158H380.409H386.289V272.876V267.594H380.409H374.529V272.876Z" fill="#ABDF3A"/>
<path d="M440.386 272.876V278.158H446.266H452.146V272.876V267.594H446.266H440.386V272.876Z" fill="#ABDF3A"/>
<path d="M494.483 272.876V278.158H501.304C508.361 278.158 510.948 276.867 510.948 273.346C510.948 269.472 507.537 267.594 500.834 267.594H494.483V272.876Z" fill="#ABDF3A"/>
<path d="M219 191C136.209 191 113 191 113 191L3 191V463" stroke="white" stroke-width="6" stroke-linecap="round"/>
<path d="M603 191C685.791 191 709 191 709 191L819 191V463" stroke="white" stroke-width="6" stroke-linecap="round"/>
<path d="M412 400.5C412 400.5 412 437.616 412 463" stroke="white" stroke-width="6" stroke-linecap="round"/>
</svg>
