<?xml version="1.0" standalone="no"?>
<!DOCTYPE svg PUBLIC "-//W3C//DTD SVG 20010904//EN"
 "http://www.w3.org/TR/2001/REC-SVG-20010904/DTD/svg10.dtd">
<svg version="1.0" xmlns="http://www.w3.org/2000/svg"
 width="901.000000pt" height="280.000000pt" viewBox="0 0 901.000000 280.000000"
 preserveAspectRatio="xMidYMid meet">

<g transform="translate(0.000000,280.000000) scale(0.100000,-0.100000)"
fill="#FFF" stroke="none">
<path d="M762 2784 c-21 -14 -22 -22 -22 -135 l0 -119 51 0 51 0 -3 121 c-4
105 -6 122 -23 135 -25 18 -27 17 -54 -2z"/>
<path d="M1961 2784 c-19 -14 -21 -24 -21 -135 l0 -119 45 0 46 0 -3 126 c-3
119 -4 127 -24 135 -14 5 -29 2 -43 -7z"/>
<path d="M111 2634 c-12 -15 -21 -32 -21 -39 0 -7 9 -24 21 -39 l20 -26 260 0
259 0 0 65 0 65 -259 0 -260 0 -20 -26z"/>
<path d="M930 2592 l0 -67 68 -13 c37 -7 96 -26 131 -42 34 -17 67 -27 72 -24
5 3 9 34 9 69 l0 65 -40 20 c-39 20 -187 60 -222 60 -15 0 -18 -10 -18 -68z"/>
<path d="M1755 2649 c-22 -5 -73 -21 -112 -35 l-73 -26 0 -74 c0 -41 4 -74 9
-74 5 0 38 14 75 31 36 17 95 36 131 42 l66 11 -3 66 c-3 61 -4 65 -28 67 -14
1 -43 -3 -65 -8z"/>
<path d="M2130 2595 l0 -65 259 0 c257 0 260 0 275 22 22 31 20 64 -4 88 -19
19 -33 20 -275 20 l-255 0 0 -65z"/>
<path d="M1311 2604 l-23 -17 4 -508 c2 -400 6 -511 16 -521 18 -18 134 -17
155 1 15 12 17 61 17 521 0 478 -1 508 -18 523 -25 23 -119 23 -151 1z"/>
<path d="M557 2434 c-4 -4 -7 -25 -7 -46 l0 -38 -188 0 c-103 0 -202 -4 -220
-9 -39 -12 -128 -84 -137 -111 -9 -28 12 -60 39 -60 13 0 44 19 71 43 l49 42
325 5 325 5 13 25 c8 14 12 51 11 85 l-3 60 -136 3 c-74 1 -138 -1 -142 -4z"/>
<path d="M1940 2369 c0 -118 -25 -109 313 -109 161 -1 311 -5 334 -9 27 -5 57
-22 83 -45 42 -37 67 -45 88 -24 22 22 12 54 -30 95 -70 68 -90 73 -313 73
l-195 0 0 45 0 45 -140 0 -140 0 0 -71z"/>
<path d="M3544 1910 c-11 -4 -33 -23 -48 -41 -24 -28 -27 -39 -23 -78 7 -65
49 -101 118 -101 45 0 55 4 85 34 28 28 34 41 34 78 0 52 -21 85 -66 104 -37
16 -69 17 -100 4z"/>
<path d="M1128 1860 c-156 -65 -261 -177 -312 -332 -20 -62 -25 -97 -28 -228
l-3 -155 91 -3 91 -3 6 148 c4 96 12 164 22 193 25 71 80 138 151 183 l64 41
-1 75 c-1 115 -1 115 -81 81z"/>
<path d="M1570 1788 l0 -95 40 -18 c51 -23 135 -112 163 -172 19 -42 22 -69
25 -205 l4 -158 94 0 94 0 0 140 c0 164 -10 220 -57 319 -60 127 -212 254
-330 277 l-33 7 0 -95z"/>
<path d="M3880 1340 l0 -521 98 3 97 3 5 156 5 156 125 -156 125 -156 123 -3
c76 -2 122 1 122 7 0 6 -75 94 -166 196 l-166 185 164 186 c89 102 165 189
166 195 2 5 -47 9 -121 9 l-124 0 -124 -157 -124 -156 -5 284 -5 284 -97 3
-98 3 0 -521z"/>
<path d="M8160 1340 l0 -521 98 3 97 3 3 48 3 48 37 -32 c84 -74 195 -95 313
-59 63 19 81 30 134 83 81 81 106 145 113 279 5 116 -18 206 -72 280 -118 159
-356 185 -493 55 l-33 -31 0 182 0 182 -100 0 -100 0 0 -520z m491 74 c41 -20
87 -79 100 -126 17 -63 6 -150 -25 -203 -74 -125 -245 -128 -330 -7 -25 36
-31 55 -34 113 -3 49 1 83 12 114 20 50 82 112 123 121 16 3 33 7 38 9 17 6
89 -7 116 -21z"/>
<path d="M2600 1311 l0 -491 213 0 c291 0 372 16 450 89 120 111 91 322 -54
394 l-48 25 29 12 c52 21 107 91 120 152 26 116 -26 218 -138 271 l-67 32
-252 3 -253 4 0 -491z m432 319 c52 -15 78 -51 78 -111 0 -40 -5 -55 -29 -81
l-29 -33 -126 -3 -126 -4 0 121 0 121 98 0 c53 0 114 -5 134 -10z m46 -410
c34 -21 62 -71 62 -111 0 -38 -31 -87 -65 -103 -24 -12 -65 -16 -154 -16
l-121 0 0 125 0 125 123 0 c105 0 127 -3 155 -20z"/>
<path d="M5815 1788 c2 -7 61 -224 130 -483 69 -258 130 -474 134 -478 4 -4
57 -6 117 -5 l109 3 92 334 c50 183 94 335 96 337 2 2 44 -148 93 -334 l89
-337 113 -3 c109 -3 112 -2 122 20 5 13 66 227 135 477 70 249 129 460 132
468 4 11 -13 13 -103 11 l-109 -3 -82 -355 c-45 -195 -84 -362 -86 -370 -2 -8
-40 136 -86 320 -45 184 -87 352 -92 373 l-10 37 -109 0 -109 0 -9 -32 c-5
-18 -49 -185 -98 -372 -48 -186 -90 -332 -93 -325 -2 8 -41 174 -85 369 l-81
355 -107 3 c-84 2 -107 0 -103 -10z"/>
<path d="M4898 1591 c-111 -36 -190 -108 -230 -210 -32 -82 -32 -252 0 -333
40 -100 111 -170 210 -210 72 -28 222 -30 291 -4 91 34 168 109 206 199 l15
37 -108 0 -108 0 -17 -29 c-43 -73 -185 -83 -256 -18 -24 22 -60 91 -61 114 0
10 66 13 283 15 l282 3 -1 85 c-2 157 -76 277 -206 335 -83 37 -215 45 -300
16z m230 -173 c39 -24 72 -73 72 -105 0 -23 0 -23 -179 -23 l-180 0 9 29 c17
59 59 103 119 122 39 12 121 0 159 -23z"/>
<path d="M7502 1590 c-162 -53 -263 -218 -249 -410 8 -113 38 -183 111 -256
81 -81 147 -107 271 -108 108 -1 174 19 243 74 47 37 103 113 117 158 6 22 6
22 -99 22 -104 0 -105 0 -125 -29 -53 -74 -189 -83 -259 -18 -27 25 -46 59
-56 99 l-6 28 282 2 283 3 -1 91 c0 79 -4 98 -31 155 -38 81 -91 134 -173 173
-86 40 -212 47 -308 16z m233 -169 c37 -21 75 -76 75 -107 l0 -24 -175 0
c-197 0 -194 -1 -153 71 36 65 92 92 173 83 28 -3 63 -13 80 -23z"/>
<path d="M3492 1213 l3 -388 98 -3 97 -3 0 391 0 390 -100 0 -100 0 2 -387z"/>
<path d="M1335 1270 c-11 -4 -30 -18 -43 -30 l-23 -22 37 -32 c29 -25 35 -36
30 -53 -9 -27 -39 -38 -65 -24 -15 8 -20 7 -25 -5 -13 -34 -4 -51 39 -82 25
-18 48 -39 51 -47 10 -26 -16 -47 -53 -43 -21 3 -34 -1 -38 -10 -12 -33 -3
-51 40 -79 25 -15 48 -36 51 -46 9 -29 -15 -50 -52 -44 -23 4 -34 1 -38 -10
-12 -30 -5 -44 39 -75 25 -17 47 -40 51 -50 9 -30 -15 -51 -52 -45 -23 4 -34
1 -38 -10 -12 -30 -5 -43 38 -73 49 -33 64 -63 45 -86 -10 -12 -23 -14 -52
-10 l-38 6 3 -52 3 -53 143 -3 142 -3 0 60 0 59 -29 -11 c-23 -8 -33 -8 -45 2
-31 26 -10 69 52 100 16 9 22 21 22 45 0 32 -1 33 -42 32 -40 -1 -43 1 -46 26
-3 23 5 33 42 60 39 27 46 37 46 65 0 31 -2 32 -30 27 -34 -7 -60 9 -60 37 0
10 19 31 45 49 38 26 45 36 45 64 0 32 -1 33 -42 32 -39 -1 -43 1 -46 26 -3
22 5 32 42 58 40 27 46 36 46 65 0 37 -8 43 -28 23 -9 -9 -18 -9 -37 0 -35 16
-32 50 7 82 30 25 31 29 18 45 -31 38 -108 55 -155 35z"/>
<path d="M787 1053 c-4 -3 -7 -167 -7 -364 l0 -358 26 -20 c30 -23 83 -27 133
-10 l31 11 0 374 0 374 -88 0 c-49 0 -92 -3 -95 -7z"/>
<path d="M1804 1046 c-3 -8 -4 -174 -2 -370 2 -272 6 -358 16 -368 17 -17 134
-17 155 1 15 12 17 51 17 382 l0 369 -90 0 c-69 0 -92 -3 -96 -14z"/>
<path d="M572 508 c-15 -15 -15 -51 0 -66 7 -7 38 -12 70 -12 l58 0 0 45 0 45
-58 0 c-32 0 -63 -5 -70 -12z"/>
<path d="M1060 475 l0 -45 50 0 50 0 0 45 0 45 -50 0 -50 0 0 -45z"/>
<path d="M1620 475 l0 -45 50 0 50 0 0 45 0 45 -50 0 -50 0 0 -45z"/>
<path d="M2080 475 l0 -45 58 0 c60 0 82 11 82 41 0 33 -29 49 -86 49 l-54 0
0 -45z"/>
</g>
</svg>
