<svg width="179" height="51" viewBox="0 0 179 51" fill="none" xmlns="http://www.w3.org/2000/svg">
<path d="M70.543 17.9714C70.3238 18.0515 69.8856 18.4319 69.5868 18.7922C69.1087 19.3528 69.0489 19.5731 69.1286 20.3539C69.268 21.6552 70.1047 22.376 71.4793 22.376C72.3757 22.376 72.5749 22.2959 73.1726 21.6952C73.7304 21.1347 73.8499 20.8744 73.8499 20.1336C73.8499 19.0926 73.4315 18.4319 72.5351 18.0515C71.798 17.7311 71.1605 17.7111 70.543 17.9714Z" fill="white"/>
<path d="M77.2365 29.3832V39.814L79.1888 39.7539L81.1211 39.6939L81.2207 36.5707L81.3203 33.4474L83.8105 36.5707L86.3006 39.6939L88.7509 39.7539C90.2649 39.794 91.1813 39.7339 91.1813 39.6138C91.1813 39.4937 89.6872 37.7319 87.8744 35.6897L84.5675 31.9859L87.8346 28.262C89.6075 26.2199 91.1215 24.4781 91.1415 24.358C91.1813 24.2579 90.2052 24.1778 88.731 24.1778H86.2608L83.7906 27.3211L81.3203 30.4443L81.2207 24.7584L81.1211 19.0725L79.1888 19.0125L77.2365 18.9524V29.3832Z" fill="white"/>
<path d="M162.499 29.3832V39.814L164.451 39.7539L166.384 39.6939L166.443 38.7329L166.503 37.7719L167.24 38.4126C168.914 39.8941 171.125 40.3145 173.475 39.5938C174.73 39.2134 175.089 38.9932 176.145 37.9321C177.758 36.3104 178.257 35.0291 178.396 32.3463C178.496 30.0239 178.037 28.222 176.962 26.7405C174.611 23.5572 169.87 23.0366 167.141 25.6393L166.483 26.26V22.6162V18.9724H164.491H162.499V29.3832ZM172.28 27.9017C173.097 28.3021 174.013 29.4833 174.272 30.4243C174.611 31.6856 174.392 33.4274 173.774 34.4885C172.3 36.9911 168.894 37.0511 167.2 34.6286C166.702 33.9079 166.583 33.5275 166.523 32.3663C166.463 31.3853 166.543 30.7046 166.762 30.0839C167.16 29.0829 168.396 27.8416 169.212 27.6614C169.531 27.6014 169.87 27.5213 169.969 27.4812C170.308 27.3611 171.742 27.6214 172.28 27.9017Z" fill="white"/>
<path d="M51.7375 29.9638V39.794H55.9807C61.7777 39.794 63.3913 39.4737 64.9452 38.0121C67.3357 35.7898 66.758 31.5655 63.8694 30.124L62.9132 29.6235L63.4909 29.3832C64.5268 28.9628 65.6225 27.5613 65.8815 26.3401C66.3994 24.0177 65.3635 21.9755 63.1323 20.9144L61.7976 20.2738L56.7775 20.2137L51.7375 20.1336V29.9638ZM60.3434 23.5772C61.3793 23.8775 61.8972 24.5983 61.8972 25.7995C61.8972 26.6003 61.7976 26.9006 61.3195 27.4212L60.7418 28.0819L58.2317 28.1419L55.7217 28.222V25.7995V23.377H57.674C58.7298 23.377 59.945 23.4771 60.3434 23.5772ZM61.2598 31.7857C61.9371 32.2061 62.4949 33.2072 62.4949 34.008C62.4949 34.7688 61.8773 35.7498 61.2 36.0701C60.7219 36.3104 59.9051 36.3905 58.1321 36.3905H55.7217V33.8879V31.3853H58.172C60.2637 31.3853 60.702 31.4453 61.2598 31.7857Z" fill="white"/>
<path d="M115.784 20.4139C115.824 20.5541 116.999 24.8986 118.374 30.0839C119.748 35.2493 120.963 39.5738 121.043 39.6538C121.123 39.7339 122.179 39.774 123.374 39.754L125.545 39.6939L127.378 33.007C128.374 29.3432 129.251 26.3 129.29 26.26C129.33 26.2199 130.167 29.223 131.143 32.9469L132.916 39.6939L135.167 39.754C137.339 39.814 137.398 39.794 137.598 39.3535C137.697 39.0933 138.912 34.8088 140.287 29.8036C141.681 24.8185 142.857 20.5941 142.916 20.4339C142.996 20.2137 142.657 20.1737 140.865 20.2137L138.693 20.2738L137.06 27.3811C136.163 31.2852 135.386 34.6286 135.346 34.7888C135.307 34.949 134.55 32.066 133.633 28.3822C132.737 24.6984 131.9 21.3349 131.8 20.9144L131.601 20.1737H129.43H127.258L127.079 20.8143C126.98 21.1747 126.103 24.5182 125.127 28.262C124.171 31.9859 123.334 34.9089 123.274 34.7688C123.234 34.6086 122.457 31.2852 121.581 27.3811L119.967 20.2738L117.836 20.2137C116.162 20.1737 115.704 20.2137 115.784 20.4139Z" fill="white"/>
<path d="M97.5162 24.358C95.305 25.0787 93.7312 26.5202 92.9343 28.5624C92.2969 30.2041 92.2969 33.6076 92.9343 35.2293C93.7312 37.2313 95.1456 38.6328 97.1178 39.4336C98.5521 39.9942 101.54 40.0342 102.915 39.5137C104.728 38.833 106.262 37.3314 107.019 35.5296L107.317 34.7888H105.166H103.014L102.676 35.3694C101.819 36.8309 98.9904 37.0311 97.576 35.7298C97.0979 35.2893 96.3807 33.9079 96.3608 33.4474C96.3608 33.2472 97.6756 33.1871 101.998 33.1471L107.616 33.087L107.596 31.3853C107.556 28.242 106.082 25.8395 103.493 24.6783C101.839 23.9376 99.2095 23.7774 97.5162 24.358ZM102.098 27.8216C102.875 28.3021 103.532 29.2831 103.532 29.9238C103.532 30.3842 103.532 30.3842 99.9665 30.3842H96.3807L96.56 29.8036C96.8986 28.6224 97.7353 27.7415 98.9306 27.3611C99.7075 27.1209 101.341 27.3611 102.098 27.8216Z" fill="white"/>
<path d="M149.391 24.378C146.164 25.4391 144.152 28.7425 144.43 32.5865C144.59 34.8489 145.187 36.2503 146.642 37.7118C148.255 39.3335 149.57 39.8541 152.04 39.8741C154.192 39.8941 155.507 39.4937 156.881 38.3925C157.817 37.6518 158.933 36.1302 159.212 35.2293C159.331 34.7888 159.331 34.7888 157.24 34.7888C155.168 34.7888 155.148 34.7888 154.75 35.3694C153.694 36.8509 150.985 37.0311 149.59 35.7298C149.052 35.2293 148.674 34.5486 148.474 33.7477L148.355 33.1871L153.973 33.1471L159.61 33.087L159.59 31.2652C159.59 29.6835 159.511 29.3031 158.973 28.1619C158.216 26.5403 157.16 25.4792 155.527 24.6984C153.813 23.8975 151.303 23.7574 149.391 24.378ZM154.032 27.7615C154.77 28.182 155.527 29.2831 155.527 29.9037V30.3842H152.04C148.116 30.3842 148.176 30.4043 148.992 28.9628C149.71 27.6614 150.825 27.1209 152.439 27.3011C152.997 27.3611 153.694 27.5613 154.032 27.7615Z" fill="white"/>
<path d="M69.5071 31.9258L69.5669 39.6939L71.5191 39.7539L73.4515 39.814V31.9859V24.1778H71.4594H69.4673L69.5071 31.9258Z" fill="white"/>
<path d="M15.1224 0.473274C14.7041 0.753564 14.6841 0.91373 14.6841 3.17607V5.55854H15.7001H16.7161L16.6563 3.13603C16.5767 1.03385 16.5368 0.693502 16.1981 0.433232C15.7001 0.0728593 15.6603 0.0928798 15.1224 0.473274Z" fill="#ABDF3A"/>
<path d="M39.0079 0.473274C38.6294 0.753564 38.5895 0.953772 38.5895 3.17607V5.55854H39.486H40.4023L40.3426 3.03593C40.2828 0.653461 40.2629 0.493295 39.8645 0.333128C39.5856 0.233025 39.2867 0.293087 39.0079 0.473274Z" fill="#ABDF3A"/>
<path d="M2.15376 3.4769C1.9147 3.77714 1.73541 4.11741 1.73541 4.25752C1.73541 4.39763 1.9147 4.73789 2.15376 5.03813L2.55218 5.55854H7.73167H12.8912V4.25752V2.95649H7.73167H2.55218L2.15376 3.4769Z" fill="#ABDF3A"/>
<path d="M18.4692 4.31724V5.65863L19.8238 5.9189C20.5609 6.05905 21.7362 6.43944 22.4335 6.75977C23.1108 7.10013 23.7682 7.30033 23.8678 7.24027C23.9674 7.18021 24.0471 6.55957 24.0471 5.85884V4.55749L23.2502 4.15708C22.4733 3.75666 19.525 2.95583 18.8278 2.95583C18.5289 2.95583 18.4692 3.15604 18.4692 4.31724Z" fill="#ABDF3A"/>
<path d="M34.9041 3.17606C34.4658 3.27617 33.4499 3.5965 32.6729 3.87679L31.2187 4.39733V5.87886C31.2187 6.69971 31.2984 7.3604 31.398 7.3604C31.4976 7.3604 32.155 7.08011 32.8921 6.73975C33.6092 6.3994 34.7846 6.01901 35.5017 5.89888L36.8165 5.67866L36.7568 4.35729C36.697 3.13602 36.6771 3.05594 36.199 3.0159C35.9201 2.99588 35.3424 3.07596 34.9041 3.17606Z" fill="#ABDF3A"/>
<path d="M42.3745 4.25752V5.55854H47.5341C52.6538 5.55854 52.7136 5.55854 53.0124 5.11819C53.4507 4.49771 53.4108 3.83719 52.9327 3.35681C52.5542 2.97651 52.2753 2.95649 47.4544 2.95649H42.3745V4.25752Z" fill="#ABDF3A"/>
<path d="M26.0591 4.077L25.6009 4.41735L25.6806 14.5879C25.7204 22.5962 25.8001 24.8185 25.9993 25.0187C26.3579 25.3791 28.6688 25.359 29.0871 24.9987C29.3859 24.7584 29.4258 23.7774 29.4258 14.5679C29.4258 4.99795 29.4059 4.39733 29.0672 4.09702C28.5692 3.63654 26.6966 3.63654 26.0591 4.077Z" fill="#ABDF3A"/>
<path d="M11.0386 7.48052C10.9589 7.56061 10.8991 7.98104 10.8991 8.40148V9.16227H7.15396C5.10209 9.16227 3.12989 9.24235 2.77131 9.34245C1.99439 9.5827 0.22141 11.0242 0.0421194 11.5648C-0.137171 12.1253 0.281173 12.766 0.819043 12.766C1.07802 12.766 1.69557 12.3856 2.23344 11.9051L3.20958 11.0642L9.68395 10.9641L16.1583 10.864L16.4173 10.3635C16.5767 10.0832 16.6563 9.34245 16.6364 8.66175L16.5767 7.4605L13.8674 7.40044C12.3932 7.38042 11.1183 7.42046 11.0386 7.48052Z" fill="#ABDF3A"/>
<path d="M38.5895 8.78187C38.5895 11.1443 38.0915 10.9641 44.8248 10.9641C48.0321 10.9842 51.0203 11.0642 51.4785 11.1443C52.0163 11.2444 52.614 11.5848 53.1319 12.0453C53.9686 12.786 54.4666 12.9462 54.885 12.5257C55.3233 12.0853 55.124 11.4446 54.2874 10.6238C52.8929 9.26237 52.4945 9.16227 48.052 9.16227H44.1674V8.26133V7.3604H41.3785H38.5895V8.78187Z" fill="#ABDF3A"/>
<path d="M22.4135 18.9724C19.3058 20.2738 17.2141 22.5161 16.1982 25.6193C15.7997 26.8606 15.7001 27.5613 15.6404 30.184L15.5806 33.2873L17.3934 33.3473L19.2062 33.4074L19.3258 30.4443C19.4055 28.5223 19.5648 27.1609 19.764 26.5803C20.2621 25.1588 21.3577 23.8174 22.7721 22.9165L24.0471 22.0957L24.0272 20.5941C24.0072 18.2917 24.0072 18.2917 22.4135 18.9724Z" fill="#ABDF3A"/>
<path d="M31.2187 20.4139V22.3159L32.0155 22.6763C33.0315 23.1367 34.7049 24.9186 35.2627 26.1198C35.6412 26.9607 35.7009 27.5013 35.7607 30.2241L35.8404 33.3874H37.713H39.5856V30.5845C39.5856 27.3011 39.3864 26.1799 38.4501 24.1978C37.2548 21.6552 34.2268 19.1126 31.8761 18.6521L31.2187 18.512V20.4139Z" fill="#ABDF3A"/>
<path d="M26.5372 30.7847C26.3181 30.8647 25.9396 31.145 25.6806 31.3853L25.2224 31.8257L25.9595 32.4664C26.5372 32.9669 26.6567 33.1871 26.5571 33.5275C26.3778 34.0681 25.7802 34.2883 25.2623 34.008C24.9634 33.8478 24.8638 33.8679 24.7642 34.1081C24.5053 34.7888 24.6845 35.1292 25.5412 35.7498C26.0392 36.1102 26.4974 36.5306 26.5571 36.6908C26.7563 37.2113 26.2384 37.6318 25.5013 37.5517C25.083 37.4916 24.824 37.5717 24.7443 37.7519C24.5053 38.4126 24.6845 38.7729 25.5412 39.3335C26.0392 39.6338 26.4974 40.0543 26.5571 40.2545C26.7364 40.8351 26.2583 41.2555 25.5212 41.1354C25.0631 41.0553 24.8439 41.1154 24.7642 41.3356C24.5252 41.9362 24.6646 42.2165 25.5412 42.8371C26.0392 43.1775 26.4775 43.638 26.5571 43.8382C26.7364 44.4388 26.2583 44.8592 25.5212 44.7391C25.0631 44.659 24.8439 44.7191 24.7642 44.9393C24.5252 45.5399 24.6646 45.8002 25.5212 46.4008C26.4974 47.0615 26.7962 47.6621 26.4177 48.1226C26.2185 48.3629 25.9595 48.4029 25.3818 48.3228L24.6248 48.2027L24.6845 49.2438L24.7443 50.3049L27.593 50.3649L30.4218 50.425V49.2238V48.0425L29.8441 48.2628C29.3859 48.4229 29.1867 48.4229 28.9477 48.2227C28.3301 47.7022 28.7485 46.8413 29.9836 46.2206C30.3023 46.0405 30.4218 45.8002 30.4218 45.3197C30.4218 44.6791 30.4019 44.659 29.5851 44.6791C28.7883 44.6991 28.7285 44.659 28.6688 44.1585C28.609 43.698 28.7684 43.4978 29.5055 42.9573C30.2824 42.4167 30.4218 42.2165 30.4218 41.6559C30.4218 41.0353 30.382 41.0153 29.8242 41.1154C29.1469 41.2555 28.6289 40.9352 28.6289 40.3746C28.6289 40.1744 29.0074 39.754 29.5254 39.3936C30.2824 38.873 30.4218 38.6728 30.4218 38.1123C30.4218 37.4716 30.4019 37.4516 29.5851 37.4716C28.8082 37.4916 28.7285 37.4516 28.6688 36.951C28.609 36.5106 28.7684 36.3104 29.5055 35.7898C30.3023 35.2493 30.4218 35.0691 30.4218 34.4885C30.4218 33.7477 30.2625 33.6276 29.864 34.028C29.6848 34.2082 29.5055 34.2082 29.127 34.028C28.4297 33.7077 28.4895 33.027 29.2664 32.3863C29.864 31.8858 29.884 31.8057 29.625 31.4854C29.0074 30.7246 27.4735 30.3842 26.5372 30.7847Z" fill="#ABDF3A"/>
<path d="M15.6204 35.1292C15.5408 35.1892 15.481 38.4726 15.481 42.4167V49.5841L15.9989 49.9845C16.5966 50.445 17.6524 50.5251 18.6484 50.1848L19.266 49.9645V42.4768V34.989H17.5129C16.5368 34.989 15.6802 35.0491 15.6204 35.1292Z" fill="#ABDF3A"/>
<path d="M35.8802 35.2693C35.8205 35.4295 35.8006 38.7529 35.8404 42.677C35.8802 48.1226 35.9599 49.8444 36.1591 50.0446C36.4978 50.385 38.8286 50.385 39.2469 50.0246C39.5457 49.7843 39.5856 49.0035 39.5856 42.3767V34.989H37.7927C36.4181 34.989 35.9599 35.0491 35.8802 35.2693Z" fill="#ABDF3A"/>
<path d="M11.3374 46.0405C11.0386 46.3408 11.0386 47.0615 11.3374 47.3618C11.4768 47.502 12.0944 47.6021 12.7319 47.6021H13.8873V46.7011V45.8002H12.7319C12.0944 45.8002 11.4768 45.9003 11.3374 46.0405Z" fill="#ABDF3A"/>
<path d="M21.0589 46.7011V47.6021H22.055H23.051V46.7011V45.8002H22.055H21.0589V46.7011Z" fill="#ABDF3A"/>
<path d="M32.2148 46.7011V47.6021H33.2108H34.2069V46.7011V45.8002H33.2108H32.2148V46.7011Z" fill="#ABDF3A"/>
<path d="M41.3785 46.7011V47.6021H42.5339C43.7292 47.6021 44.1674 47.3818 44.1674 46.7812C44.1674 46.1205 43.5897 45.8002 42.4542 45.8002H41.3785V46.7011Z" fill="#ABDF3A"/>
</svg>
